<svg width="160" height="161" viewBox="0 0 160 161" fill="none" xmlns="http://www.w3.org/2000/svg">
<mask id="mask0_1116_2972" style="mask-type:alpha" maskUnits="userSpaceOnUse" x="0" y="0" width="160" height="161">
<circle cx="79.7377" cy="80.4765" r="79.7377" fill="#D9D9D9"/>
</mask>
<g mask="url(#mask0_1116_2972)">
<path d="M123.451 146.307C123.085 146.569 122.667 146.83 122.301 147.092C121.882 147.353 121.516 147.615 121.098 147.824C120.732 148.033 120.418 148.242 120.052 148.451C120 148.503 119.948 148.503 119.895 148.556C118.693 149.288 117.438 149.968 116.183 150.595C115.817 150.804 115.399 151.013 115.033 151.17C115.033 151.17 114.98 151.222 114.928 151.222C114.51 151.432 114.091 151.641 113.673 151.85C112.837 152.268 111.948 152.634 111.111 153C110.693 153.209 110.222 153.366 109.804 153.523C109.386 153.68 108.915 153.889 108.497 154.046C108.078 154.203 107.608 154.412 107.19 154.569C107.19 154.569 107.19 154.569 107.137 154.569C106.719 154.726 106.248 154.883 105.83 155.039C104.889 155.353 103.895 155.667 102.954 155.981C102.64 156.085 102.274 156.19 101.961 156.294C100.967 156.608 99.9738 156.869 98.9804 157.079C98.6143 157.183 98.2483 157.236 97.83 157.34C96.8889 157.549 95.8954 157.758 94.9542 157.968C94.7451 158.02 94.5882 158.02 94.3791 158.072C94.0653 158.124 93.6993 158.177 93.3856 158.229C92.915 158.281 92.4967 158.386 92.0261 158.438C91.817 158.49 91.6078 158.49 91.3987 158.543C91.1372 158.595 90.8235 158.647 90.5098 158.647C89.6732 158.752 88.7843 158.856 87.9477 158.961C87.6862 159.013 87.3725 159.013 87.1111 159.066H87.0588C86.6928 159.118 86.3268 159.118 85.9608 159.17C85.5947 159.222 85.2287 159.222 84.8627 159.222C84.6536 159.222 84.3921 159.275 84.183 159.275C83.7647 159.275 83.3987 159.327 83.0327 159.327C82.5098 159.327 82.0392 159.379 81.5163 159.379C80.9934 159.379 80.5229 159.379 80 159.379C79.634 159.379 79.2679 159.379 78.9019 159.379C56.8366 159.066 37.0196 149.706 22.8497 134.856C22.8497 134.856 22.8497 134.804 22.7974 134.804C21.2287 133.392 22.5882 125.863 28.915 121.105C36.8627 115.092 55.8954 111.327 55.8954 111.327C55.8954 111.327 63.2679 110.124 90.6143 115.824C106.614 119.17 118.797 124.033 125.595 137.209C127.007 139.928 128.418 144.111 123.451 146.307Z" fill="white"/>
<path d="M90.7715 115.249C100.811 117.288 111.53 119.484 119.791 126.124C122.562 128.373 124.392 131.667 125.909 134.856C126.641 136.425 127.373 138.046 127.948 139.771C128.262 140.922 128.732 142.229 128.471 143.588C128.419 143.954 128.105 144.425 127.843 144.686C126.641 145.889 125.334 146.621 124.026 147.562C116.34 152.896 107.503 156.66 98.3532 158.647C77.961 163.092 55.8956 159.641 37.961 148.922C32.0002 145.314 26.51 140.922 21.8041 135.745C21.2812 135.118 21.2812 134.072 21.2812 133.392C21.3335 131.824 21.7518 130.307 22.2747 128.896C23.5296 125.654 25.1505 122.412 27.9218 120.164C29.9087 118.804 32.0525 117.654 34.2486 116.713C41.1505 113.785 48.4185 111.745 55.8956 110.909C56.5231 110.856 56.6277 111.745 56.0002 111.85C48.8368 113.314 41.7257 115.51 35.0852 118.49C32.6799 119.693 30.1179 120.739 28.1832 122.621C26.3531 124.608 25.046 127.066 24.0002 129.575C23.3205 131.092 22.8499 133.497 23.059 134.7C26.3531 138.621 30.2224 142.072 34.4054 145.053C57.3074 161.053 92.0786 162.098 116.445 148.765C118.641 147.562 120.785 146.203 122.824 144.791C123.817 144.111 124.863 143.536 125.647 142.752C125.7 142.7 125.647 142.752 125.647 142.804C125.647 142.856 125.595 142.909 125.595 142.909C125.647 142.281 125.438 141.445 125.177 140.608C124.236 137.575 122.719 134.386 121.098 131.615C118.536 127.484 114.196 124.869 109.804 122.778C106.771 121.366 103.582 120.268 100.34 119.222C97.0982 118.177 93.8041 117.288 90.51 116.503C89.6734 116.294 89.9349 115.092 90.7715 115.249Z" fill="black"/>
<path d="M130.614 153.732C129.621 145.994 125.229 132.974 122.562 129.471C119.634 125.654 118.431 124.451 108.653 121.157C108.131 118.543 106.196 111.954 103.895 109.183C100.392 103.902 90.8233 102.699 87.9475 103.327C87.9475 103.327 72.4704 97.889 54.6403 97.889C48.9933 99.1439 42.4573 101.706 38.9018 107.092C36.4965 110.647 39.2155 111.797 38.0129 115.039C37.6991 115.876 30.3789 120.059 27.3985 122.569C26.039 123.667 24.5227 126.438 23.4769 130.046C21.3854 137.418 23.6338 147.614 21.0194 156.503C15.9998 173.654 5.80371 178.778 5.80371 178.778H140.915C140.81 178.726 132.758 170.046 130.614 153.732Z" fill="white"/>
<path d="M129.83 153.837C128.784 146.987 126.693 140.19 124.026 133.811C122.719 130.726 120.732 127.745 117.961 125.915C116.549 125.026 114.98 124.347 113.359 123.667C111.739 123.039 110.065 122.464 108.444 121.889C108.183 121.785 107.974 121.575 107.922 121.314C107.712 120.268 107.451 119.275 107.137 118.229C105.778 113.994 104.314 109.288 100.34 106.83C97.3072 105 93.6993 104.111 90.196 103.954C89.5163 103.954 88.7843 103.954 88.1568 104.059H87.9477C87.8954 104.059 87.7908 104.059 87.7385 104.007C85.2287 102.804 82.4575 102.072 79.7385 101.34C71.5817 99.4578 63.0588 98.6734 54.6928 98.6212C49.5686 99.8238 42.4052 102.647 39.2679 107.876C38.7451 108.713 38.4836 109.549 38.5882 110.49C38.6928 111.536 39.0588 112.687 38.7974 113.785C38.6928 114.255 38.5882 114.778 38.3791 115.196C37.9608 115.771 37.281 116.138 36.7581 116.504C34.0392 118.281 31.2679 119.85 28.6536 121.68C27.7647 122.307 26.9281 122.883 26.3006 123.771C24.4706 126.386 23.3725 129.523 22.9019 132.66C22.0653 139.039 22.9019 145.523 22.0653 151.902C21.1241 158.281 18.6666 164.451 15.2157 169.889C12.8104 173.549 9.88232 176.948 6.1699 179.301L5.80389 177.837H140.915L140.34 179.144C138.771 177.366 137.516 175.432 136.366 173.392C132.81 167.432 130.719 160.687 129.83 153.837ZM131.399 153.628C131.974 158.072 133.072 162.464 134.745 166.647C136.418 170.778 138.51 174.804 141.438 178.203C141.856 178.673 141.49 179.562 140.863 179.51H5.7516C5.3333 179.51 4.96729 179.144 4.96729 178.726C4.96729 178.412 5.12415 178.151 5.38559 178.046C6.22219 177.575 7.05879 176.896 7.8431 176.216C14.6928 170.046 18.9804 160.896 20.3921 151.798C21.5947 143.275 19.3464 134.072 23.1634 125.968C24.0523 124.085 25.1503 122.098 26.9281 120.896C30.1699 118.49 33.7255 116.713 36.915 114.36C36.9673 114.36 36.9673 114.307 36.9673 114.307C36.915 114.36 36.8627 114.464 36.8627 114.517C37.1764 113.785 37.281 113.157 37.1764 112.321C37.0196 111.275 36.7581 109.863 37.1241 108.765C37.281 108.138 37.5947 107.562 37.9085 107.092C41.6732 101.445 48.3137 98.9349 54.6405 97.5231C56.4183 97.5754 58.2483 97.2617 60.0261 97.2617C62.4836 97.2617 64.9934 97.6277 67.4509 97.9414C74.5098 99.0395 81.3072 100.922 88.2614 102.438L87.7908 102.386C89.4117 102.072 90.9281 102.229 92.4967 102.438C102.536 103.954 105.935 108.347 108.654 117.706C108.967 118.752 109.229 119.798 109.49 120.896L108.967 120.268C113.987 122.046 119.634 123.667 122.823 128.321C123.974 129.732 124.81 131.405 125.542 133.079C128.209 139.771 130.301 146.517 131.399 153.628Z" fill="black"/>
<path d="M48.2093 119.327C52.0786 127.589 58.0917 134.595 65.2551 140.138C65.5165 140.347 65.2551 140.765 64.9414 140.608C58.5623 137.576 53.1767 132.399 49.9871 126.125C48.9414 124.033 48.0525 121.785 47.7387 119.432C47.6342 119.17 48.0525 119.066 48.2093 119.327Z" fill="black"/>
<path d="M109.438 121.053C109.595 129.785 106.039 138.726 99.2421 144.373C99.0852 144.53 98.8761 144.477 98.7192 144.321C98.5624 144.164 98.6146 143.955 98.7715 143.798C100.288 142.334 101.804 140.817 102.955 139.04C105.36 135.589 106.824 131.51 107.504 127.379C107.817 125.34 108.026 123.144 107.87 121.105C107.817 120.111 109.386 120.007 109.438 121.053Z" fill="black"/>
<path d="M78.6406 141.811C77.438 146.046 76.4445 150.647 77.0197 155.039C77.1766 156.033 75.6602 156.294 75.4511 155.249C75.1896 152.843 75.5034 150.49 75.9217 148.19C76.3922 145.889 76.9674 143.693 77.7517 141.497C77.9609 140.974 78.8498 141.236 78.6406 141.811Z" fill="black"/>
<path d="M95.2677 141.026C96.9932 144.739 98.1958 148.608 99.137 152.53C99.2416 152.948 98.9801 153.366 98.5618 153.471C98.1435 153.575 97.7252 153.314 97.6206 152.896C97.0978 149.968 96.418 147.039 95.4768 144.164C95.1631 143.222 94.8494 142.281 94.4834 141.34C94.2742 140.87 95.0063 140.504 95.2677 141.026Z" fill="black"/>
<path d="M39.111 114.83C41.0457 125.392 48.4705 134.334 57.4117 140.033C60.4444 141.968 63.6862 143.641 67.0326 145C67.2417 145.105 67.3463 145.314 67.2417 145.523C67.1895 145.732 66.928 145.837 66.7712 145.732C63.3202 144.477 59.9738 142.909 56.8365 141.026C50.4574 137.262 44.8627 132.033 41.0979 125.654C39.1633 122.36 37.647 118.909 36.9149 115.144C36.8104 114.517 37.2287 113.941 37.8561 113.837C38.4313 113.68 39.0587 114.151 39.111 114.83Z" fill="black"/>
<path d="M75.5029 156.19C74.0388 156.033 72.9931 154.673 73.3068 153.209L73.882 150.438C74.0911 149.34 75.1369 148.556 76.2349 148.713C77.333 148.817 78.2219 149.758 78.2219 150.909V153.732C78.2741 155.196 77.0192 156.347 75.5029 156.19Z" fill="black"/>
<path d="M99.6077 154.255C98.1959 154.778 96.6796 153.941 96.3136 152.477L95.6338 149.706C95.3724 148.608 95.9475 147.51 97.0456 147.092C98.0913 146.726 99.294 147.196 99.7645 148.19L101.019 150.752C101.647 152.164 101.019 153.785 99.6077 154.255Z" fill="black"/>
<path d="M123.765 152.687C123.765 152.687 126.693 169.105 125.542 178.726" stroke="black" stroke-width="5.1257" stroke-miterlimit="10" stroke-linecap="round" stroke-linejoin="round"/>
<path d="M55.4767 112.948C54.7447 110.857 54.4309 108.713 54.5878 106.517C54.5878 106.307 54.7447 106.203 54.9538 106.203C55.1107 106.203 55.2675 106.36 55.2675 106.517C55.4244 108.504 55.9996 110.543 56.9407 112.268C57.4113 113.314 55.8427 113.994 55.4767 112.948Z" fill="black"/>
<path d="M90.8233 115.719C89.3592 112.425 85.7514 110.752 82.5618 109.602C80.5749 108.974 78.3788 108.504 76.2873 108.19C71.2154 107.406 64.052 106.203 58.9801 105.68C58.9278 105.68 58.9278 105.575 58.9801 105.575C60.4442 105.419 61.9082 105.419 63.3723 105.419C67.7644 105.523 72.1566 105.994 76.4965 106.674C80.8363 107.353 85.4899 108.66 88.7841 111.798C89.8298 112.896 90.771 114.151 91.0324 115.667C91.0847 115.824 90.8756 115.876 90.8233 115.719Z" fill="black"/>
<path d="M95.6855 129.157C94.5875 134.543 87.4764 137.784 75.5025 132.922C63.0581 127.902 57.6725 115.928 56.313 112.373C63.6855 98.5688 58.5614 89.0001 58.5614 89.0001C75.5548 87.5361 90.4045 107.405 90.4045 107.405L92.7052 117.235C92.9143 118.072 93.3326 118.804 93.96 119.327C95.0581 121.262 96.3653 125.706 95.6855 129.157Z" fill="white"/>
<path d="M56.0518 112.53C57.0453 111.013 57.6727 109.235 58.091 107.51C58.8753 103.902 59.1368 100.242 59.1891 96.5818V95.2224C59.0322 93.8629 58.5616 92.4511 58.0387 91.1962C57.359 89.523 59.8165 88.4773 60.6008 90.1505C60.7054 90.3596 60.7054 90.7256 60.7054 90.9348C60.8623 98.0459 61.176 107.196 56.6793 113.105C56.3655 113.418 55.7381 112.948 56.0518 112.53Z" fill="black"/>
<path d="M90.9797 107.301C91.764 107.771 92.0255 108.399 92.1301 109.026C92.4438 110.281 92.3392 111.641 92.6529 112.948C92.9144 114.203 93.6987 115.405 93.9078 116.713C94.1693 118.072 94.9536 120.948 95.2673 122.36C95.3719 122.673 95.1627 123.039 94.7967 123.092C94.5876 123.144 94.4307 123.092 94.2738 122.987C93.5941 122.412 93.2804 121.837 92.8621 121.105C92.1823 119.85 91.7118 118.7 91.2935 117.288C90.9274 116.033 91.0843 114.673 90.7706 113.366C90.5091 112.111 89.7771 110.909 89.5157 109.602C89.3588 108.974 89.3065 108.294 89.7771 107.51C90.0908 107.196 90.6137 107.092 90.9797 107.301Z" fill="black"/>
<path d="M94.7448 121.105C84.7579 120.582 76.601 117.445 68.6533 103.275C75.3461 109.183 83.2416 111.432 91.5553 112.477L92.6533 117.288C92.8625 118.124 94.1174 120.582 94.7448 121.105Z" fill="black"/>
<path d="M94.3263 119.17C96.1041 122.516 97.1499 126.699 96.0518 130.412C95.2152 133.026 92.81 134.961 90.1956 135.693C84.1303 137.314 77.1237 134.752 71.7381 131.876C65.0976 128.164 60.1825 121.941 57.0453 115.144C56.8361 114.621 57.5682 114.203 57.8819 114.726C58.9799 116.922 60.2348 119.066 61.6466 121C63.0584 122.987 64.6793 124.817 66.5093 126.438C71.8427 131.249 79.0584 134.229 86.2741 134.229C93.6989 134.02 96.5224 130.098 94.7969 122.883C94.5355 121.732 94.1172 120.53 93.542 119.536C93.2283 119.118 94.0126 118.647 94.3263 119.17Z" fill="black"/>
<path d="M114.562 56.3727C115.503 60.7649 112.366 65.4707 112.366 77.1832C112.366 89.157 110.17 102.177 101.124 111.222C93.333 119.013 84.3918 118.699 73.882 110.49C72.418 109.34 67.2938 105.471 65.9866 104.164C64.4702 102.647 63.6336 101.549 62.9016 100.399C62.2742 99.3531 62.431 93.2877 61.5421 91.876C59.2415 88.059 58.7709 92.1897 55.7905 88.8433C51.6598 84.3466 46.6925 75.3008 49.15 59.3008C53.1238 33.3662 73.6729 30.3335 88.8885 33.2093C104.209 36.1374 112.052 44.8171 114.562 56.3727Z" fill="white"/>
<path d="M58.4048 93.4969C57.2022 91.51 55.6859 89.7322 54.2741 87.9021C52.8623 85.9675 51.712 83.9283 50.7708 81.7322C45.4375 68.8172 46.2218 51.9283 55.6859 41.0524C62.1695 33.6276 72.4179 31.1701 81.8297 31.693C91.2414 32.2681 101.019 34.6734 107.973 41.4707C112 45.3923 114.562 50.6211 115.712 56.059C116.078 57.7845 115.817 59.6668 115.398 61.2877C114.196 65.8368 113.045 70.1766 112.941 74.8825C112.993 81.889 112.784 89.0524 110.745 95.7975C109.281 100.294 107.555 104.791 104.836 108.713C102.013 112.686 97.7774 115.876 92.9146 116.817C83.1368 118.804 73.9865 112.634 67.5029 105.941C67.2414 105.628 67.6074 105.262 67.9212 105.471C71.6336 108.294 75.4506 110.909 79.5813 112.686C91.5029 118.177 101.385 113.105 106.614 101.601C111.006 93.2355 112.261 84.1897 111.895 74.8302C111.895 72.4773 112 70.1243 112.313 67.7714C112.627 64.3727 113.777 60.974 113.725 57.6276C112.836 52.1897 110.326 46.9609 106.562 42.9348C97.6205 33.4707 80.4702 30.6995 68.444 34.9871C54.2741 40.0067 50.4571 54.2812 49.6728 67.9283C49.1499 76.0851 51.5552 84.0851 57.7251 89.6799L60.1826 92.242C61.0192 93.3923 59.2414 94.7518 58.4048 93.4969Z" fill="black"/>
<path d="M64.5749 76.8694C64.5749 76.8694 62.954 69.0263 55.32 69.9675C48.7317 70.8041 46.4311 86.5949 61.3853 90.9871" fill="white"/>
<path d="M60.7055 84.1374C59.5029 83.4577 58.6663 82.3073 58.614 80.8956C58.6663 79.8498 58.8232 78.6472 58.5617 77.6015C58.4049 76.608 57.3591 76.3466 56.5748 76.3988C55.7382 76.5557 55.2153 77.6015 55.0585 78.4381C55.0585 78.4904 55.0062 78.6472 55.0062 78.6995C54.9539 78.9609 54.5356 78.9609 54.431 78.6995C53.7513 76.6603 55.2676 74.4119 57.4637 74.6734C60.5487 74.8825 60.967 78.1243 60.3918 80.5818C60.0781 81.6276 60.4964 82.5688 61.0715 83.4577L61.1761 83.6145C61.4376 83.9283 61.0193 84.3466 60.7055 84.1374Z" fill="black"/>
<path d="M102.536 71.327C103.32 75.0394 104.784 78.4904 106.614 81.7322C108.235 85.706 104.052 89.4708 100.34 89.3139C99.9213 89.3139 99.869 88.7387 100.235 88.6342C102.588 87.9021 104.732 86.3335 105.098 83.9283C105.255 83.1963 105.045 82.5688 104.679 81.9413C102.954 78.6995 101.908 74.9871 102.17 71.327C102.17 71.0655 102.536 71.0655 102.536 71.327Z" fill="black"/>
<path d="M64.3133 76.9217C63.1107 73.8367 60.4963 70.9086 56.9931 70.9609C56.6794 70.9086 56.1565 71.0132 55.8428 71.0132C54.9539 71.0655 54.2218 71.3792 53.5421 72.0066C50.1957 75.353 50.7709 81.2615 53.4898 84.974C54.431 86.2811 55.6336 87.4315 56.9931 88.3726C58.3526 89.3138 59.8689 90.0458 61.4898 90.6733C61.8558 90.7779 61.699 91.353 61.3329 91.3007C57.8297 90.5687 54.4833 88.8432 52.1826 85.9674C48.6271 81.6798 47.895 74.5164 52.1303 70.3334C53.0715 69.4968 54.3787 68.8694 55.6859 68.8694C56.1042 68.8694 56.7316 68.7648 57.1499 68.8694C59.346 68.974 61.4375 70.072 62.797 71.7975C63.9996 73.2615 64.6794 75.0393 64.8885 76.8171C64.8885 77.1308 64.4179 77.2354 64.3133 76.9217Z" fill="black"/>
<path d="M98.562 94.5427C95.2156 97.7322 88.8888 95.1701 87.2156 91.3008C87.0064 90.8303 87.5293 90.412 87.9476 90.6211C88.8365 91.0917 89.6208 91.5623 90.4574 91.9283C92.8626 93.0263 95.3724 93.9152 98.0391 93.6538C98.562 93.5492 98.928 94.1767 98.562 94.5427Z" fill="black"/>
<path d="M83.033 76.6604C81.7781 76.6081 80.837 75.5623 80.9415 74.3074L80.9938 72.8434C81.0461 71.5885 82.0919 70.6473 83.3468 70.7519C84.6017 70.8042 85.5428 71.8499 85.4383 73.1048L85.386 74.5689C85.3337 75.7715 84.2879 76.7126 83.033 76.6604Z" fill="black"/>
<path d="M105.046 77.4447C103.895 77.3924 103.007 76.399 103.059 75.2487L103.111 73.8892C103.163 72.7388 104.157 71.85 105.307 71.9022C106.458 71.9545 107.346 72.948 107.294 74.0983L107.242 75.4578C107.19 76.6081 106.196 77.497 105.046 77.4447Z" fill="black"/>
<path d="M87.7388 73.8368C86.0133 72.6865 84.1309 71.9022 82.0394 72.3205C81.3597 72.4251 80.6799 72.6342 80.2616 73.1048C80.1048 73.314 79.7388 73.2617 79.7388 72.948C79.7911 71.9022 80.6799 71.2225 81.5165 70.8042C83.1375 69.9676 85.3858 70.1244 86.8499 71.2225C87.3728 71.5362 89.1505 73.4708 88.2094 73.8891C88.0002 73.9937 87.8956 73.9414 87.7388 73.8368Z" fill="black"/>
<path d="M102.693 74.0983C102.693 71.9022 105.412 71.1179 107.085 71.9022C108.026 72.3205 108.706 73.1571 108.967 74.1506C109.072 74.4643 108.601 74.7257 108.392 74.4643C107.503 73.4185 105.987 72.8957 104.784 73.5231C104.418 73.7323 104.366 73.8891 104.261 74.0983C104.261 75.144 102.745 75.0917 102.693 74.0983Z" fill="black"/>
<path d="M90.2487 65.2094C91.3467 65.5754 92.4447 64.5819 92.2356 63.3793C92.131 62.7519 91.8696 62.1244 91.3467 61.6538C89.7781 60.2421 83.2944 58.9872 79.3728 60.8172C75.9219 62.4904 85.229 63.5362 90.2487 65.2094Z" fill="black"/>
<path d="M105.883 66.046C104.994 66.3597 104.053 65.4185 104.21 64.3205C104.262 63.7453 104.471 63.1702 104.889 62.7519C106.144 61.497 110.432 60.5035 113.151 62.4381C115.504 64.0591 109.961 64.5296 105.883 66.046Z" fill="black"/>
<path d="M124.811 50.0982C124.811 43.51 120.366 38.0198 114.353 36.2943C114.667 34.9871 114.719 33.6276 114.405 32.2159C113.36 27.6668 109.281 24.4773 104.628 24.791C102.798 24.8956 101.072 25.5753 99.6603 26.6211C97.5688 20.8695 94.4838 18.8825 88.2616 18.5165C85.0198 18.3597 79.1113 19.4577 77.3335 25.5753C75.4512 24.0067 72.7845 23.2224 69.1244 23.2224C62.7453 23.2224 57.5165 28.242 57.2028 34.5688C56.2093 34.2551 55.1113 34.0982 54.0133 34.1505C49.778 34.4119 46.327 37.8629 46.0133 42.0982C45.9087 43.51 46.1701 44.8695 46.693 46.1244C40.7322 46.7518 36.0786 51.8237 36.0786 57.9414C36.0786 62.5427 38.693 66.5688 42.5623 68.5557C41.1505 69.1309 39.1113 71.9021 38.7453 74.2551C38.1178 78.2812 39.8956 81.7845 42.4054 83.144C42.144 83.9806 42.0394 84.974 42.3531 85.9675C42.8237 87.693 44.2355 89.0525 45.961 89.4185C47.0067 89.6276 48.0002 89.5231 48.8891 89.1571C49.7257 90.9348 50.7714 92.0329 51.608 92.7126C54.8499 95.3793 61.4904 95.1178 59.7126 90.4642C59.7126 90.412 59.7126 90.4119 59.7126 90.3597C46.6407 85.34 48.9936 70.7518 55.3727 69.9152C62.0655 69.0786 64.157 75.0394 64.5231 76.5034C71.6865 71.9021 61.4904 55.327 72.0002 50.4119C81.3597 46.0721 91.1897 52.6603 103.216 54.2812C107.66 54.9087 111.843 50.5165 113.726 52.974C114.092 54.0721 114.405 55.1701 114.667 56.3204C115.137 58.3597 114.771 60.2943 114.301 63.0655C113.673 66.5688 117.909 64.1636 118.327 63.6407C119.373 62.3335 120.105 60.8695 119.582 59.144C122.51 56.5819 124.811 54.3858 124.811 50.0982Z" fill="black"/>
<path d="M106.824 90.3074C106.562 88.7388 105.621 86.1244 104.157 87.2747C103.582 87.7453 100.602 88.6865 100.026 88.7388C98.3532 88.8956 97.0983 88.6865 95.8956 87.7453C94.5362 86.6472 94.5362 86.1767 94.2224 86.0721C88.7322 84.242 81.8303 82.412 79.5819 89.7845C79.059 91.51 74.5623 105.366 83.3989 113.889C84.2878 114.098 89.5166 116.66 100.288 113.784C101.595 113.209 103.268 112.634 104 111.275C107.19 105.366 107.347 93.6538 106.824 90.3074ZM89.046 103.536C84.4969 103.536 83.6603 100.608 83.4512 99.6669C83.0852 95.5884 83.8172 92.1897 84.863 90.9871C87.5819 88.0067 91.5558 91.4577 95.8434 91.7714C100.079 92.0852 103.111 90.0459 103.477 94.8041C103.582 95.9544 103.53 97.2616 103.477 98.5688C103.477 98.6211 103.477 98.6734 103.477 98.7257C103.32 100.19 103.059 102.334 101.386 102.7C97.4643 103.536 98.876 101.811 96.5231 101.811C94.327 101.863 95.8956 103.536 89.046 103.536Z" fill="black"/>
<path d="M150.693 44.8172C182.432 105.941 126.641 174.909 60.1309 158.072C30.2747 150.647 6.27469 124.765 1.30737 94.3858C-4.33969 64.1636 9.30737 31.693 34.8237 14.595C69.8041 -9.45731 118.275 -1.45731 143.32 32.9479C143.477 33.1048 143.425 33.3662 143.216 33.5231C143.059 33.6799 142.798 33.6277 142.641 33.4185C139.19 28.9741 135.268 24.9479 130.981 21.3401C123.922 15.327 115.66 10.6211 106.928 7.43158C62.4838 -8.673 13.6995 18.0982 3.97403 64.5819C-7.00636 116.66 37.2812 164.608 90.0917 157.445C130.824 152.32 161.098 114.726 157.752 73.8368C157.02 63.9545 154.405 54.1767 150.066 45.1832C149.961 45.0264 150.066 44.8172 150.222 44.7126C150.379 44.6081 150.588 44.6603 150.693 44.8172Z" fill="black"/>
</g>
</svg>
