<svg width="400" height="401" viewBox="0 0 400 401" fill="none" xmlns="http://www.w3.org/2000/svg">
<path d="M199.624 383.773C301.753 383.773 384.544 335.972 384.544 277.005C384.544 218.039 301.753 170.237 199.624 170.237C97.4956 170.237 14.7041 218.039 14.7041 277.005C14.7041 335.972 97.4956 383.773 199.624 383.773Z" fill="#F5F5F5"/>
<path d="M342.872 296.221L294.336 268.221C294.127 268.15 293.945 268.016 293.817 267.837C293.688 267.657 293.619 267.442 293.619 267.221C293.619 267.001 293.688 266.786 293.817 266.606C293.945 266.427 294.127 266.292 294.336 266.221L325.536 248.237C326.073 247.965 326.666 247.824 327.268 247.824C327.87 247.824 328.463 247.965 329 248.237L377.528 276.237C377.737 276.308 377.918 276.443 378.047 276.622C378.175 276.802 378.245 277.017 378.245 277.237C378.245 277.458 378.175 277.673 378.047 277.853C377.918 278.032 377.737 278.166 377.528 278.237L346.328 296.229C345.791 296.499 345.199 296.639 344.599 296.637C343.999 296.636 343.407 296.493 342.872 296.221Z" fill="#E0E0E0"/>
<path d="M132.688 349.493C177.724 349.493 214.232 328.415 214.232 302.413C214.232 276.412 177.724 255.333 132.688 255.333C87.6525 255.333 51.144 276.412 51.144 302.413C51.144 328.415 87.6525 349.493 132.688 349.493Z" fill="#E0E0E0"/>
<path d="M209.664 323.549C238.997 323.549 262.776 309.821 262.776 292.885C262.776 275.95 238.997 262.221 209.664 262.221C180.331 262.221 156.552 275.95 156.552 292.885C156.552 309.821 180.331 323.549 209.664 323.549Z" fill="#E0E0E0"/>
<path d="M51.6083 262.509L52.2643 252.109C52.2643 252.109 51.6483 238.821 38.4803 226.565C30.4803 219.117 23.8643 223.125 22.2083 227.181C20.5523 231.237 21.9283 237.389 29.7043 243.141C41.8803 252.141 52.1043 266.389 53.4323 276.493L51.6083 262.509Z" fill="#37474F"/>
<path d="M51.2001 259.573C51.0924 259.584 50.9843 259.557 50.894 259.497C50.8037 259.438 50.7367 259.349 50.7041 259.245C44.7121 239.405 27.5041 227.501 27.2881 227.381C27.2382 227.346 27.196 227.3 27.1643 227.248C27.1326 227.196 27.1119 227.137 27.1037 227.076C27.0954 227.016 27.0997 226.954 27.1163 226.895C27.1329 226.836 27.1614 226.781 27.2001 226.733C27.2685 226.632 27.374 226.562 27.4938 226.538C27.6137 226.514 27.7381 226.538 27.8401 226.605C28.0161 226.725 45.5281 238.805 51.6161 258.965C51.6492 259.082 51.636 259.207 51.5794 259.314C51.5228 259.421 51.4271 259.503 51.3121 259.541L51.2001 259.573Z" fill="white"/>
<path d="M52.1361 262.853C52.0592 261.717 51.6378 260.632 50.9281 259.741C49.6481 258.261 47.4081 257.781 46.3281 256.141C45.9001 255.325 45.5569 254.468 45.3041 253.581C44.5025 251.672 43.0076 250.137 41.1201 249.285C39.2314 248.463 37.1502 248.186 35.1121 248.485C33.5681 248.677 32.0721 249.149 30.5281 249.365C25.4641 250.093 20.7761 245.445 15.7361 248.565C12.7121 250.453 12.9201 253.749 14.6001 256.509C15.479 257.914 16.5815 259.165 17.8641 260.213C19.2241 261.365 20.6561 262.061 20.8001 264.061C20.8961 265.517 20.4401 266.965 20.4561 268.429C20.5137 269.631 20.8293 270.806 21.3814 271.874C21.9336 272.943 22.7094 273.88 23.6561 274.621C25.568 276.09 27.8181 277.056 30.2001 277.429C31.9521 277.765 33.9681 278.029 34.9361 279.525C35.3404 280.344 35.6105 281.221 35.7361 282.125C36.1561 283.572 36.879 284.913 37.8569 286.06C38.8348 287.206 40.0453 288.131 41.4081 288.773C44.1579 290.036 47.2068 290.502 50.2081 290.117C52.7935 289.941 55.2723 289.018 57.3441 287.461C60.7681 284.661 58.8001 279.373 56.5441 276.429C55.5601 275.133 54.3441 274.029 53.4401 272.677C51.6321 269.997 51.9281 267.677 52.0961 264.613C52.1578 264.029 52.1712 263.44 52.1361 262.853Z" fill="#455A64"/>
<path d="M54.8082 282.565C54.7306 282.581 54.6502 282.571 54.5784 282.538C54.5066 282.505 54.447 282.45 54.4082 282.381C42.1602 260.333 22.5122 254.173 22.3122 254.109C22.2163 254.08 22.1358 254.014 22.088 253.926C22.0401 253.837 22.0287 253.734 22.0562 253.637C22.0875 253.541 22.155 253.46 22.2445 253.413C22.334 253.365 22.4386 253.354 22.5362 253.381C22.7362 253.445 42.6722 259.701 55.0722 282.013C55.0963 282.056 55.1118 282.104 55.1176 282.153C55.1235 282.202 55.1196 282.252 55.1062 282.299C55.0929 282.347 55.0703 282.391 55.0397 282.43C55.0092 282.469 54.9713 282.501 54.9282 282.525C54.8925 282.549 54.851 282.563 54.8082 282.565Z" fill="white"/>
<path d="M43.1282 267.405H43.0402C37.6562 267.181 29.5122 269.341 29.4402 269.365C29.3919 269.38 29.3411 269.384 29.291 269.378C29.241 269.372 29.1927 269.356 29.1492 269.33C29.1057 269.305 29.0679 269.27 29.0381 269.23C29.0084 269.189 28.9873 269.143 28.9762 269.093C28.9629 269.046 28.9592 268.996 28.9652 268.946C28.9713 268.897 28.9871 268.849 29.0116 268.806C29.0361 268.763 29.069 268.725 29.1082 268.695C29.1475 268.665 29.1923 268.642 29.2402 268.629C29.5762 268.541 37.5842 266.413 43.0802 266.645C43.18 266.638 43.2785 266.67 43.3543 266.736C43.4301 266.801 43.4768 266.894 43.4842 266.993C43.4917 267.093 43.4592 267.192 43.3939 267.267C43.3286 267.343 43.236 267.39 43.1362 267.397L43.1282 267.405Z" fill="white"/>
<path d="M39.2003 263.749C39.1012 263.759 39.0023 263.73 38.9235 263.669C38.8448 263.608 38.7921 263.52 38.7763 263.421C38.4637 260.699 38.5364 257.947 38.9923 255.245C39.0117 255.148 39.0688 255.062 39.1513 255.007C39.2337 254.951 39.3348 254.931 39.4323 254.949C39.4813 254.958 39.5281 254.976 39.57 255.003C39.6118 255.03 39.6479 255.065 39.6762 255.106C39.7045 255.147 39.7244 255.193 39.7347 255.242C39.745 255.29 39.7456 255.341 39.7363 255.389C39.303 258.013 39.2357 260.684 39.5363 263.325C39.5476 263.426 39.5186 263.527 39.4557 263.607C39.3927 263.686 39.301 263.737 39.2003 263.749Z" fill="white"/>
<path opacity="0.3" d="M368.192 108.773L220.264 23.3734C218.04 22.0934 216.264 23.1334 216.264 25.7014V142.853C216.336 144.25 216.736 145.609 217.431 146.822C218.126 148.035 219.096 149.068 220.264 149.837L368.192 235.237C370.416 236.517 372.192 235.477 372.192 232.909V115.757C372.119 114.361 371.719 113.002 371.024 111.789C370.329 110.575 369.359 109.543 368.192 108.773Z" fill="#404040"/>
<path opacity="0.5" d="M368.192 108.773L220.264 23.3734C218.04 22.0934 216.264 23.1334 216.264 25.7014V142.853C216.336 144.25 216.736 145.609 217.431 146.822C218.126 148.035 219.096 149.068 220.264 149.837L368.192 235.237C370.416 236.517 372.192 235.477 372.192 232.909V115.757C372.119 114.361 371.719 113.002 371.024 111.789C370.329 110.575 369.359 109.543 368.192 108.773Z" fill="white"/>
<path opacity="0.3" d="M368.976 213.181V198.173L359.224 192.573V203.837L356 201.933V183.165L349.496 179.413V186.917L346.248 185.037V200.045L339.728 196.333V185.037L336.48 183.165V179.413L333.224 177.533V173.781L329.976 171.909V175.661L326.728 173.781V177.533L323.48 175.661V179.413L316.976 175.661V164.405L307.232 158.805V177.533L304 175.661V164.405L297.496 160.645V171.909L294.248 170.029V166.277L287.752 162.525V155.021L281.248 151.269V155.021L277.984 153.133V164.413L274.736 162.533V147.533L271.488 145.653V141.901L268.232 140.029V136.277L264.984 134.397V138.149L261.736 136.277V140.029L258.488 138.149V156.893L255.24 155.021V147.533L245.6 141.933V145.749L238.984 141.933V134.429L235.728 132.557V128.805L232.48 126.925V123.173L229.232 121.301V125.045L225.984 123.173V126.925L222.736 125.045V132.557L216.232 128.797V142.901C216.305 144.298 216.705 145.657 217.399 146.87C218.094 148.083 219.065 149.116 220.232 149.885L368.192 235.237C370.416 236.517 372.192 235.477 372.192 232.909V215.061L368.976 213.181Z" fill="#404040"/>
<g opacity="0.3">
<path d="M218.464 23.6294C218.96 23.6542 219.442 23.8056 219.864 24.0694L367.792 109.461C368.841 110.161 369.714 111.093 370.344 112.185C370.974 113.277 371.344 114.499 371.424 115.757V232.909C371.424 233.533 371.28 234.981 369.992 234.981C369.495 234.957 369.013 234.805 368.592 234.541L220.664 149.133C219.613 148.436 218.738 147.505 218.108 146.412C217.478 145.32 217.11 144.096 217.032 142.837V25.7014C217.032 25.0774 217.176 23.6294 218.464 23.6294ZM218.464 22.8294C217.144 22.8294 216.232 23.8774 216.232 25.7014V142.853C216.305 144.25 216.705 145.609 217.399 146.822C218.094 148.035 219.065 149.068 220.232 149.837L368.192 235.237C368.735 235.571 369.355 235.758 369.992 235.781C371.312 235.781 372.224 234.733 372.224 232.909V115.757C372.151 114.361 371.751 113.002 371.056 111.789C370.362 110.575 369.391 109.543 368.224 108.773L220.264 23.3734C219.721 23.0399 219.101 22.8525 218.464 22.8294Z" fill="#404040"/>
</g>
<path opacity="0.5" d="M258.912 83.9734L323.048 121.005C326.88 123.213 329.976 128.581 329.976 133.005V150.773C329.976 155.189 326.88 156.981 323.048 154.773L258.912 117.741C255.088 115.533 251.984 110.165 251.984 105.741V87.9734C252 83.5334 255.088 81.7654 258.912 83.9734Z" fill="white"/>
<g opacity="0.5">
<path d="M326.144 156.125C324.976 156.084 323.839 155.736 322.848 155.117L258.712 118.093C254.784 115.821 251.584 110.285 251.584 105.741V87.9734C251.584 85.6854 252.384 83.9734 253.816 83.1734C255.248 82.3734 257.136 82.5174 259.112 83.6614L323.248 120.685C327.184 122.957 330.376 128.493 330.376 133.037V150.805C330.376 153.093 329.576 154.805 328.152 155.605C327.54 155.952 326.847 156.132 326.144 156.125ZM255.824 83.4214C255.263 83.4132 254.71 83.557 254.224 83.8374C253.048 84.5174 252.392 85.9814 252.392 87.9734V105.741C252.392 110.029 255.408 115.253 259.12 117.397L323.256 154.429C324.976 155.421 326.576 155.589 327.76 154.909C328.944 154.229 329.584 152.757 329.584 150.773V133.005C329.584 128.717 326.568 123.493 322.856 121.349L258.712 84.3334C257.845 83.7831 256.85 83.4687 255.824 83.4214Z" fill="#404040"/>
</g>
<g opacity="0.5">
<path d="M269.128 98.5254C269.787 98.915 270.384 99.4034 270.896 99.9734C271.419 100.557 271.883 101.193 272.28 101.869C272.654 102.504 272.96 103.177 273.192 103.877C273.393 104.441 273.511 105.031 273.544 105.629C273.549 105.683 273.543 105.738 273.525 105.789C273.507 105.84 273.478 105.887 273.44 105.925C273.41 105.952 273.372 105.967 273.332 105.967C273.292 105.967 273.253 105.952 273.224 105.925L271.256 104.797C271.13 104.718 271.017 104.621 270.92 104.509C270.823 104.371 270.735 104.226 270.656 104.077C270.656 104.013 270.584 103.909 270.52 103.765C270.439 103.593 270.346 103.427 270.24 103.269C270.106 103.071 269.956 102.884 269.792 102.709C269.596 102.508 269.373 102.335 269.128 102.197C268.953 102.099 268.771 102.013 268.584 101.941C268.436 101.883 268.278 101.856 268.12 101.861C268.055 101.864 267.992 101.88 267.934 101.909C267.876 101.938 267.825 101.979 267.784 102.029C267.686 102.178 267.641 102.356 267.656 102.533C267.657 102.76 267.706 102.983 267.8 103.189C267.926 103.445 268.088 103.682 268.28 103.893C268.56 104.21 268.859 104.509 269.176 104.789L270.552 106.029C271.074 106.491 271.558 106.994 272 107.533C272.403 108.026 272.749 108.563 273.032 109.133C273.306 109.688 273.512 110.274 273.648 110.877C273.788 111.535 273.855 112.205 273.848 112.877C273.874 113.53 273.756 114.18 273.504 114.781C273.309 115.225 272.967 115.587 272.536 115.805C272.073 116.01 271.558 116.063 271.064 115.957C270.41 115.827 269.785 115.584 269.216 115.237C268.524 114.837 267.895 114.336 267.352 113.749C266.802 113.157 266.317 112.508 265.904 111.813C265.511 111.154 265.192 110.454 264.952 109.725C264.735 109.102 264.613 108.449 264.592 107.789C264.586 107.735 264.592 107.68 264.609 107.628C264.625 107.575 264.652 107.527 264.688 107.485C264.717 107.458 264.756 107.443 264.796 107.443C264.836 107.443 264.874 107.458 264.904 107.485L266.872 108.621C266.999 108.688 267.111 108.781 267.2 108.893C267.292 109.01 267.373 109.136 267.44 109.269L267.624 109.677C267.717 109.887 267.823 110.09 267.944 110.285C268.089 110.53 268.261 110.758 268.456 110.965C268.677 111.203 268.933 111.405 269.216 111.565C269.617 111.826 270.07 111.995 270.544 112.061C270.896 112.093 271.072 111.877 271.072 111.413C271.069 111.171 271.003 110.934 270.88 110.725C270.717 110.437 270.521 110.168 270.296 109.925C270.032 109.645 269.704 109.325 269.296 108.965C268.888 108.605 268.416 108.165 267.864 107.677C266.901 106.843 266.129 105.812 265.6 104.653C265.11 103.523 264.867 102.301 264.888 101.069C264.875 100.48 264.973 99.8943 265.176 99.3414C265.338 98.895 265.634 98.5095 266.024 98.2374C266.423 97.983 266.896 97.8703 267.368 97.9174C267.992 97.9861 268.594 98.1938 269.128 98.5254Z" fill="#404040"/>
<path d="M284.072 107.389C284.201 107.472 284.301 107.592 284.36 107.733C284.436 107.893 284.477 108.068 284.48 108.245V110.733C284.486 110.8 284.478 110.866 284.458 110.93C284.437 110.993 284.404 111.051 284.36 111.101C284.32 111.137 284.269 111.156 284.216 111.156C284.162 111.156 284.111 111.137 284.072 111.101L281.432 109.573V121.421C281.438 121.489 281.43 121.557 281.41 121.622C281.389 121.686 281.356 121.746 281.312 121.797C281.271 121.831 281.22 121.85 281.168 121.85C281.115 121.85 281.064 121.831 281.024 121.797L279.064 120.661C278.934 120.579 278.834 120.459 278.776 120.317C278.699 120.157 278.658 119.983 278.656 119.805V107.957L276.016 106.429C275.886 106.347 275.786 106.227 275.728 106.085C275.651 105.925 275.61 105.751 275.608 105.573V103.125C275.601 103.059 275.609 102.992 275.63 102.929C275.65 102.866 275.684 102.807 275.728 102.757C275.767 102.722 275.818 102.702 275.872 102.702C275.925 102.702 275.976 102.722 276.016 102.757L284.072 107.389Z" fill="#404040"/>
<path d="M291.456 111.645C291.657 111.768 291.816 111.95 291.912 112.165C292.006 112.368 292.078 112.58 292.128 112.797L295.4 129.245C295.431 129.369 295.45 129.494 295.456 129.621C295.46 129.676 295.454 129.731 295.438 129.783C295.421 129.835 295.395 129.884 295.36 129.925C295.328 129.954 295.286 129.969 295.244 129.969C295.201 129.969 295.16 129.954 295.128 129.925L293.24 128.829C293.053 128.734 292.904 128.579 292.816 128.389C292.736 128.242 292.682 128.083 292.656 127.917L292.232 125.757L288.232 123.453L287.816 125.125C287.793 125.238 287.738 125.341 287.656 125.421C287.576 125.501 287.432 125.485 287.232 125.365L285.352 124.333C285.244 124.264 285.161 124.163 285.112 124.045C285.05 123.918 285.017 123.779 285.016 123.637C285.022 123.531 285.044 123.426 285.08 123.325L288.352 110.661C288.386 110.516 288.461 110.383 288.568 110.277C288.672 110.165 288.824 110.173 289.024 110.277L291.456 111.645ZM289.056 120.341L291.456 121.741L290.24 115.533L289.056 120.341Z" fill="#404040"/>
<path d="M302.272 117.933C302.914 118.306 303.508 118.758 304.04 119.277C304.56 119.793 305.006 120.377 305.368 121.013C305.744 121.683 306.027 122.402 306.208 123.149C306.411 123.974 306.511 124.82 306.504 125.669C306.551 126.563 306.393 127.455 306.04 128.277C305.919 128.538 305.735 128.763 305.504 128.934C305.274 129.104 305.004 129.214 304.72 129.253L306.576 135.829C306.605 135.92 306.621 136.014 306.624 136.109C306.629 136.163 306.624 136.217 306.607 136.268C306.59 136.318 306.563 136.365 306.528 136.405C306.494 136.434 306.452 136.45 306.408 136.45C306.364 136.45 306.321 136.434 306.288 136.405L304.248 135.229C304.06 135.128 303.911 134.968 303.824 134.773C303.742 134.603 303.675 134.427 303.624 134.245L301.96 128.333L300.576 127.533V132.477C300.582 132.544 300.574 132.61 300.554 132.674C300.533 132.737 300.5 132.795 300.456 132.845C300.416 132.881 300.365 132.9 300.312 132.9C300.259 132.9 300.207 132.881 300.168 132.845L298.208 131.709C298.08 131.622 297.98 131.5 297.92 131.357C297.842 131.201 297.801 131.028 297.8 130.853V115.933C297.794 115.867 297.802 115.8 297.822 115.737C297.843 115.674 297.876 115.616 297.92 115.565C297.96 115.531 298.011 115.513 298.064 115.513C298.116 115.513 298.167 115.531 298.208 115.565L302.272 117.933ZM300.576 123.957L302.272 124.933C302.42 125.041 302.589 125.118 302.768 125.158C302.946 125.197 303.132 125.2 303.312 125.165C303.592 125.077 303.728 124.709 303.728 124.061C303.757 123.498 303.612 122.939 303.312 122.461C303.045 122.062 302.689 121.731 302.272 121.493L300.576 120.509V123.957Z" fill="#404040"/>
<path d="M316.976 126.381C317.101 126.47 317.198 126.592 317.256 126.733C317.335 126.89 317.379 127.062 317.384 127.237V129.693C317.388 129.76 317.379 129.827 317.357 129.89C317.335 129.954 317.301 130.012 317.256 130.061C317.216 130.095 317.167 130.113 317.116 130.113C317.064 130.113 317.015 130.095 316.976 130.061L314.336 128.541V140.389C314.341 140.456 314.334 140.522 314.313 140.586C314.292 140.649 314.259 140.707 314.216 140.757C314.176 140.793 314.125 140.812 314.072 140.812C314.018 140.812 313.967 140.793 313.928 140.757L312 139.661C311.874 139.573 311.777 139.451 311.72 139.309C311.642 139.153 311.601 138.98 311.6 138.805V126.949L308.96 125.429C308.831 125.342 308.731 125.22 308.672 125.077C308.594 124.921 308.553 124.748 308.552 124.573V122.125C308.545 122.058 308.553 121.99 308.573 121.925C308.594 121.861 308.627 121.801 308.672 121.749C308.712 121.716 308.763 121.697 308.816 121.697C308.868 121.697 308.919 121.716 308.96 121.749L316.976 126.381Z" fill="#404040"/>
</g>
<path opacity="0.3" d="M230.864 36.5974C232.282 37.5243 233.462 38.772 234.308 40.2397C235.155 41.7073 235.644 43.3537 235.736 45.0454C235.736 48.1494 233.552 49.4134 230.864 47.8534C229.444 46.9301 228.262 45.6843 227.416 44.2175C226.569 42.7508 226.081 41.1046 225.992 39.4134C225.992 36.3334 228.168 35.0454 230.864 36.5974Z" fill="#404040"/>
<path d="M233.68 42.9414C233.679 42.3906 233.565 41.8459 233.344 41.3414C233.145 40.8098 232.787 40.3521 232.32 40.0294C231.616 39.6134 231.032 40.4534 230.936 41.4454C230.856 40.3494 230.28 38.8294 229.576 38.4134C229.42 38.3053 229.23 38.2564 229.041 38.2755C228.852 38.2945 228.676 38.3803 228.544 38.5174C228.29 38.8637 228.165 39.2885 228.192 39.7174C228.192 41.3974 229.192 42.9174 230.032 44.5174L230.928 46.1974L231.824 45.5654C232.664 44.9494 233.68 44.6214 233.68 42.9414Z" fill="#FAFAFA"/>
<path opacity="0.3" d="M245.488 45.0454C246.914 45.9656 248.102 47.2098 248.956 48.6765C249.809 50.1433 250.304 51.791 250.4 53.4854C250.4 56.5974 248.216 57.8534 245.528 56.3014C244.109 55.3754 242.928 54.1279 242.081 52.66C241.235 51.1922 240.747 49.5454 240.656 47.8534C240.616 44.7494 242.792 43.4854 245.488 45.0454Z" fill="#404040"/>
<path d="M248.24 51.4054C248.232 50.8546 248.115 50.3109 247.896 49.8054C247.694 49.2706 247.334 48.8101 246.864 48.4854C246.168 48.0774 245.576 48.9174 245.488 49.9094C245.4 48.8134 244.824 47.2854 244.128 46.8774C243.971 46.7672 243.779 46.717 243.589 46.7361C243.398 46.7552 243.22 46.8422 243.088 46.9814C242.832 47.3271 242.707 47.7523 242.736 48.1814C242.736 49.8614 243.736 51.3814 244.576 52.9814L245.464 54.6614L246.4 54.0134C247.2 53.4134 248.232 53.0774 248.24 51.4054Z" fill="#FAFAFA"/>
<path opacity="0.3" d="M260.112 53.4854C261.53 54.4118 262.711 55.6594 263.557 57.1272C264.404 58.595 264.892 60.2415 264.984 61.9334C264.984 65.0454 262.8 66.3014 260.112 64.7494C258.689 63.8315 257.503 62.5911 256.649 61.1288C255.796 59.6665 255.299 58.0236 255.2 56.3334C255.2 53.1894 257.416 51.9334 260.112 53.4854Z" fill="#404040"/>
<path d="M262.864 59.8454C262.858 59.2944 262.741 58.7503 262.52 58.2454C262.315 57.7145 261.956 57.2574 261.488 56.9334C260.784 56.5174 260.2 57.3574 260.112 58.3494C260.024 57.2534 259.448 55.7334 258.744 55.3174C258.588 55.2093 258.398 55.1604 258.209 55.1794C258.02 55.1985 257.844 55.2843 257.712 55.4214C257.455 55.7666 257.327 56.1915 257.352 56.6214C257.352 58.3014 258.352 59.8214 259.2 61.4214L260.088 63.1014L260.984 62.4694C261.84 61.8534 262.856 61.5254 262.864 59.8454Z" fill="#FAFAFA"/>
<path d="M274.4 62.8534L342.576 102.213C343.564 102.833 344.393 103.677 344.995 104.676C345.596 105.675 345.955 106.802 346.04 107.965C346.04 110.037 344.488 110.821 342.576 109.717L274.4 70.3574C273.412 69.7377 272.583 68.8942 271.981 67.8949C271.38 66.8956 271.022 65.7687 270.936 64.6054C270.96 62.5334 272.512 61.7494 274.4 62.8534Z" fill="#FAFAFA"/>
<path opacity="0.5" d="M272.88 65.7014C272.922 66.2833 273.1 66.8472 273.4 67.3475C273.701 67.8478 274.114 68.2705 274.608 68.5814L343.096 108.173C344.048 108.725 344.824 108.333 344.824 107.293C344.781 106.713 344.602 106.151 344.302 105.652C344.002 105.153 343.589 104.731 343.096 104.421L274.608 64.8294C273.656 64.2774 272.88 64.6694 272.88 65.7014Z" fill="#404040"/>
<g opacity="0.3">
<path d="M349.6 108.565C349.581 108.486 349.581 108.404 349.6 108.325C349.598 108.295 349.605 108.265 349.619 108.238C349.633 108.212 349.654 108.189 349.68 108.173L351.224 107.237L351.368 107.157C351.398 107.143 351.43 107.135 351.464 107.135C351.497 107.135 351.53 107.143 351.56 107.157L352.432 107.661C352.495 107.7 352.543 107.76 352.568 107.829C352.607 107.906 352.629 107.991 352.632 108.077V115.237C352.634 115.27 352.63 115.302 352.619 115.332C352.608 115.363 352.59 115.39 352.568 115.413C352.568 115.453 352.488 115.453 352.432 115.413L351.488 114.869C351.427 114.828 351.38 114.77 351.352 114.701C351.318 114.626 351.299 114.544 351.296 114.461V109.613L350.44 110.117C350.402 110.149 350.354 110.149 350.296 110.117C350.236 110.07 350.192 110.006 350.168 109.933L349.6 108.565Z" fill="#404040"/>
<path d="M356.112 109.709C356.468 109.917 356.782 110.188 357.04 110.509C357.302 110.819 357.52 111.164 357.688 111.533C357.857 111.913 357.986 112.31 358.072 112.717C358.151 113.124 358.199 113.536 358.216 113.949C358.216 114.269 358.216 114.605 358.216 114.957C358.216 115.309 358.216 115.621 358.216 115.925C358.204 116.281 358.156 116.635 358.072 116.981C358.007 117.257 357.875 117.513 357.688 117.725C357.517 117.9 357.284 118 357.04 118.005C356.709 117.993 356.389 117.89 356.112 117.709C355.758 117.5 355.443 117.229 355.184 116.909C354.927 116.597 354.712 116.253 354.544 115.885C354.367 115.508 354.238 115.111 354.16 114.701C354.074 114.296 354.023 113.884 354.008 113.469C354.008 113.165 354.008 112.837 354.008 112.485C354.008 112.133 354.008 111.805 354.008 111.493C354.018 111.137 354.069 110.782 354.16 110.437C354.22 110.16 354.352 109.903 354.544 109.693C354.713 109.52 354.942 109.42 355.184 109.413C355.515 109.421 355.837 109.524 356.112 109.709ZM356.912 115.077C356.912 114.453 356.912 113.837 356.912 113.213C356.912 113.021 356.912 112.837 356.864 112.669C356.834 112.506 356.792 112.346 356.736 112.189C356.679 112.045 356.601 111.91 356.504 111.789C356.403 111.665 356.281 111.56 356.144 111.477C356.038 111.405 355.912 111.369 355.784 111.373C355.738 111.378 355.693 111.392 355.653 111.416C355.613 111.439 355.578 111.471 355.552 111.509C355.489 111.61 355.446 111.721 355.424 111.837C355.398 111.996 355.382 112.157 355.376 112.317C355.376 112.917 355.376 113.541 355.376 114.181C355.379 114.361 355.395 114.54 355.424 114.717C355.444 114.883 355.487 115.044 355.552 115.197C355.607 115.345 355.685 115.483 355.784 115.605C355.885 115.73 356.006 115.835 356.144 115.917C356.25 115.99 356.376 116.026 356.504 116.021C356.55 116.017 356.595 116.003 356.635 115.98C356.675 115.956 356.71 115.924 356.736 115.885C356.805 115.788 356.852 115.676 356.872 115.557C356.888 115.398 356.89 115.237 356.88 115.077H356.912Z" fill="#404040"/>
<path d="M363.496 116.573C363.497 116.772 363.481 116.97 363.448 117.165C363.424 117.337 363.375 117.504 363.304 117.661C363.234 117.811 363.143 117.948 363.032 118.069C362.91 118.195 362.77 118.3 362.616 118.381L361.608 118.973L363.416 120.021C363.476 120.063 363.524 120.121 363.552 120.189C363.589 120.264 363.608 120.346 363.608 120.429V121.605C363.611 121.637 363.608 121.669 363.599 121.699C363.589 121.73 363.573 121.758 363.552 121.781C363.543 121.79 363.532 121.797 363.52 121.802C363.509 121.807 363.496 121.81 363.484 121.81C363.471 121.81 363.458 121.807 363.447 121.802C363.435 121.797 363.424 121.79 363.416 121.781L359.616 119.589C359.553 119.55 359.505 119.491 359.48 119.421C359.44 119.347 359.418 119.265 359.416 119.181V118.221C359.415 118.11 359.431 118 359.464 117.893C359.475 117.851 359.495 117.811 359.523 117.777C359.55 117.742 359.585 117.714 359.624 117.693L361.776 116.565C361.923 116.497 362.038 116.373 362.096 116.221C362.137 116.084 362.158 115.941 362.16 115.797C362.16 115.741 362.16 115.669 362.16 115.565C362.142 115.457 362.116 115.349 362.08 115.245C362.029 115.125 361.968 115.01 361.896 114.901C361.808 114.783 361.696 114.685 361.568 114.613C361.522 114.579 361.471 114.554 361.416 114.54C361.361 114.527 361.304 114.524 361.248 114.533C361.169 114.549 361.098 114.591 361.048 114.653C361.003 114.719 360.97 114.792 360.952 114.869C360.952 114.949 360.912 115.005 360.904 115.045C360.896 115.085 360.84 115.181 360.792 115.189C360.729 115.187 360.668 115.168 360.616 115.133L359.728 114.629C359.678 114.592 359.64 114.542 359.616 114.485C359.585 114.426 359.568 114.36 359.568 114.293C359.571 114.004 359.614 113.716 359.696 113.437C359.768 113.202 359.897 112.988 360.072 112.813C360.239 112.658 360.459 112.569 360.688 112.565C361.001 112.571 361.306 112.665 361.568 112.837C361.884 113.024 362.168 113.262 362.408 113.541C362.646 113.823 362.85 114.132 363.016 114.461C363.174 114.797 363.297 115.148 363.384 115.509C363.459 115.859 363.497 116.216 363.496 116.573Z" fill="#404040"/>
<path d="M366.048 121.005L366.16 121.285C366.201 121.386 366.252 121.483 366.312 121.573C366.368 121.675 366.438 121.77 366.52 121.853C366.601 121.948 366.698 122.026 366.808 122.085C366.893 122.144 366.992 122.18 367.096 122.189C367.173 122.218 367.258 122.218 367.336 122.189C367.413 122.144 367.473 122.074 367.504 121.989C367.554 121.868 367.575 121.737 367.568 121.605C367.567 121.35 367.501 121.099 367.376 120.877C367.256 120.653 367.076 120.467 366.856 120.341C366.798 120.304 366.732 120.279 366.664 120.269H366.496H366.36C366.323 120.282 366.284 120.282 366.248 120.269L365.128 119.621C365.066 119.576 365.016 119.515 364.984 119.445C364.945 119.372 364.928 119.288 364.936 119.205L365.152 115.373C365.149 115.31 365.169 115.248 365.208 115.197C365.217 115.188 365.227 115.181 365.239 115.177C365.25 115.172 365.263 115.169 365.276 115.169C365.288 115.169 365.301 115.172 365.312 115.177C365.324 115.181 365.335 115.188 365.344 115.197L368.424 116.973C368.485 117.015 368.532 117.073 368.56 117.141C368.597 117.216 368.616 117.298 368.616 117.381V118.557C368.619 118.589 368.616 118.621 368.607 118.651C368.597 118.682 368.581 118.71 368.56 118.733C368.551 118.742 368.54 118.749 368.528 118.754C368.517 118.759 368.504 118.762 368.492 118.762C368.479 118.762 368.466 118.759 368.455 118.754C368.443 118.749 368.433 118.742 368.424 118.733L366.328 117.517L366.28 118.477C366.377 118.457 366.478 118.457 366.576 118.477C366.709 118.501 366.837 118.55 366.952 118.621C367.249 118.787 367.519 118.997 367.752 119.245C367.995 119.506 368.205 119.796 368.376 120.109C368.555 120.443 368.692 120.798 368.784 121.165C368.884 121.56 368.935 121.966 368.936 122.373C368.948 122.741 368.891 123.107 368.768 123.453C368.689 123.698 368.532 123.909 368.32 124.053C368.124 124.184 367.887 124.235 367.656 124.197C367.372 124.153 367.1 124.052 366.856 123.901C366.531 123.713 366.234 123.478 365.976 123.205C365.723 122.932 365.505 122.629 365.328 122.301C365.155 121.99 365.018 121.66 364.92 121.317C364.825 121.003 364.774 120.677 364.768 120.349C364.764 120.296 364.778 120.242 364.808 120.197C364.825 120.185 364.846 120.178 364.868 120.178C364.889 120.178 364.91 120.185 364.928 120.197L365.84 120.725C365.911 120.769 365.972 120.83 366.016 120.901C366.028 120.936 366.038 120.97 366.048 121.005Z" fill="#404040"/>
</g>
<path d="M195 284.021C194.936 283.885 190.544 276.261 190.544 276.261C190.544 276.261 191.488 276.821 195.904 274.333C197.554 273.327 199.093 272.15 200.496 270.821L203.424 276.461C205.288 278.445 209.2 276.285 213.656 274.565C214.4 274.277 215.16 273.941 215.92 273.597H215.968C218.408 272.797 221.288 273.645 219.264 276.437C217.24 279.229 213.2 281.133 209.464 282.837C204.968 284.933 197.064 288.477 195 284.021Z" fill="#B16668"/>
<path d="M227.768 274.685C228.309 275.382 228.654 276.211 228.768 277.085C228.912 278.021 227.464 281.717 223.968 284.653C220.472 287.589 215.56 289.013 213.424 290.253C211.288 291.493 209.512 293.405 206.96 294.781C204.408 296.157 201.808 297.181 198.608 296.125C197.904 295.477 196.872 293.837 197.008 293.621C197.304 293.133 227.768 274.685 227.768 274.685Z" fill="#263238"/>
<path d="M204.352 277.077C206.424 277.829 209.84 276.037 213.656 274.565C217.248 273.173 221.08 270.781 223.832 270.997C226.584 271.213 229.432 273.629 227.032 278.317C226.328 279.677 224.752 282.157 223.24 283.189C219.408 285.805 215.64 286.917 213.096 288.301C209.784 290.101 208.256 292.173 205.096 293.413C200.984 295.013 198.016 294.621 196.992 293.685C195.968 292.749 192.896 283.789 194.76 283.509C194.76 283.509 196.296 286.261 202.472 281.581C205.168 279.533 204.64 277.709 204.352 277.077Z" fill="#404040"/>
<path opacity="0.4" d="M204.352 277.077C206.424 277.829 209.84 276.037 213.656 274.565C217.248 273.173 221.08 270.781 223.832 270.997C226.584 271.213 229.432 273.629 227.032 278.317C226.328 279.677 224.752 282.157 223.24 283.189C219.408 285.805 215.64 286.917 213.096 288.301C209.784 290.101 208.256 292.173 205.096 293.413C200.984 295.013 198.016 294.621 196.992 293.685C195.968 292.749 192.896 283.789 194.76 283.509C194.76 283.509 196.296 286.261 202.472 281.581C205.168 279.533 204.64 277.709 204.352 277.077Z" fill="black"/>
<path d="M217.384 278.901C217.384 278.901 215.976 275.157 212.864 274.901C212.578 274.851 212.284 274.882 212.015 274.991C211.746 275.1 211.514 275.282 211.344 275.517C211.344 275.517 214.088 275.213 216.144 279.517C216.144 279.517 216.36 279.773 216.904 279.517C217.088 279.405 217.488 279.213 217.384 278.901Z" fill="#FAFAFA"/>
<path d="M209 276.429C209 276.429 208.96 276.301 209.6 275.997C209.846 275.869 210.128 275.829 210.4 275.885C210.4 275.885 212.8 276.245 214.216 280.173C214.239 280.342 214.203 280.514 214.114 280.66C214.025 280.806 213.889 280.916 213.728 280.973C213.659 281.02 213.581 281.051 213.499 281.066C213.418 281.081 213.334 281.079 213.253 281.06C213.172 281.042 213.095 281.007 213.029 280.957C212.962 280.908 212.906 280.845 212.864 280.773C212.864 280.773 211.32 276.645 209 276.429Z" fill="#FAFAFA"/>
<path d="M206.736 277.133C206.736 277.133 206.792 276.853 207.296 276.733C207.928 276.565 208.136 276.733 208.136 276.733C208.136 276.733 210.056 277.885 210.952 281.253C210.952 281.253 211.16 281.805 210.384 282.053C209.608 282.301 209.584 281.645 209.584 281.645C209.584 281.645 208.152 277.461 206.736 277.133Z" fill="#FAFAFA"/>
<path d="M177.488 228.973C183.688 238.501 202.288 272.005 202.288 272.005C202.288 272.005 197.704 278.949 190.56 278.197L163.36 237.525L177.488 228.973Z" fill="#37474F"/>
<path d="M221.032 297.997C220.104 297.077 215.92 290.221 215.92 290.221C215.92 290.221 219.056 291.261 223.664 289.141C226.008 288.061 227.768 284.925 227.768 284.925L231.264 291.621C232.968 293.749 236.76 292.165 241.336 290.821C242.136 290.597 242.888 290.325 243.672 290.021H243.72C246.224 289.437 249.016 290.509 246.776 293.117C244.536 295.725 240.376 297.309 236.48 298.717C231.84 300.437 224.528 301.453 221.032 297.997Z" fill="#B16668"/>
<path d="M257.16 290.501C257.684 291.306 257.98 292.238 258.016 293.197C258.096 294.213 256.224 298.037 252.216 300.877C248.208 303.717 242.84 304.805 240.44 305.981C238.04 307.157 235.984 309.013 233.128 310.261C230.272 311.509 227.4 312.413 224.064 310.965C223.368 310.213 222.416 308.365 222.56 308.141C222.944 307.533 257.16 290.501 257.16 290.501Z" fill="#263238"/>
<path d="M231.92 290.941C232.243 291.083 232.575 291.206 232.912 291.309C233.248 291.369 233.592 291.369 233.928 291.309C234.738 291.24 235.541 291.101 236.328 290.893C238.272 290.397 240.168 289.709 242.096 289.141C246.096 287.965 250.376 285.741 253.296 286.213C256.216 286.685 259.36 289.413 256.368 294.261C255.221 296.13 253.759 297.786 252.048 299.157C247.912 301.949 243.16 302.541 240.312 303.797C236.616 305.437 234.8 307.517 231.288 308.597C226.752 309.949 223.608 309.269 222.592 308.173C222.024 307.565 221.792 303.845 220.624 301.141C219.632 298.821 219.432 297.141 220.328 297.077C220.578 297.353 220.863 297.595 221.176 297.797C221.529 298.078 221.934 298.284 222.368 298.405C222.973 298.551 223.593 298.629 224.216 298.637C225.324 298.749 226.443 298.679 227.528 298.429C227.834 298.364 228.113 298.208 228.328 297.981C228.56 297.627 228.662 297.203 228.616 296.781C228.616 296.413 228.616 296.037 228.616 295.669C228.605 295.466 228.633 295.263 228.696 295.069C228.805 294.854 228.964 294.667 229.16 294.525C229.786 294.086 230.297 293.501 230.648 292.821C230.837 292.255 230.9 291.654 230.832 291.061C230.82 290.958 230.842 290.854 230.896 290.765C231.008 290.637 231.216 290.685 231.376 290.765C231.536 290.845 231.736 290.861 231.92 290.941Z" fill="#404040"/>
<path opacity="0.4" d="M231.92 290.941C232.243 291.083 232.575 291.206 232.912 291.309C233.248 291.369 233.592 291.369 233.928 291.309C234.738 291.24 235.541 291.101 236.328 290.893C238.272 290.397 240.168 289.709 242.096 289.141C246.096 287.965 250.376 285.741 253.296 286.213C256.216 286.685 259.36 289.413 256.368 294.261C255.221 296.13 253.759 297.786 252.048 299.157C247.912 301.949 243.16 302.541 240.312 303.797C236.616 305.437 234.8 307.517 231.288 308.597C226.752 309.949 223.608 309.269 222.592 308.173C222.024 307.565 221.792 303.845 220.624 301.141C219.632 298.821 219.432 297.141 220.328 297.077C220.578 297.353 220.863 297.595 221.176 297.797C221.529 298.078 221.934 298.284 222.368 298.405C222.973 298.551 223.593 298.629 224.216 298.637C225.324 298.749 226.443 298.679 227.528 298.429C227.834 298.364 228.113 298.208 228.328 297.981C228.56 297.627 228.662 297.203 228.616 296.781C228.616 296.413 228.616 296.037 228.616 295.669C228.605 295.466 228.633 295.263 228.696 295.069C228.805 294.854 228.964 294.667 229.16 294.525C229.786 294.086 230.297 293.501 230.648 292.821C230.837 292.255 230.9 291.654 230.832 291.061C230.82 290.958 230.842 290.854 230.896 290.765C231.008 290.637 231.216 290.685 231.376 290.765C231.536 290.845 231.736 290.861 231.92 290.941Z" fill="black"/>
<path d="M245.672 294.109C245.672 294.109 244.504 289.973 241.192 289.405C240.891 289.328 240.574 289.337 240.277 289.43C239.98 289.524 239.715 289.698 239.512 289.933C239.512 289.933 242.48 289.845 244.312 294.621C244.312 294.621 244.512 294.917 245.112 294.693C245.312 294.621 245.768 294.453 245.672 294.109Z" fill="#FAFAFA"/>
<path d="M236.92 290.733C236.92 290.733 236.92 290.597 237.6 290.333C237.876 290.216 238.183 290.196 238.472 290.277C238.472 290.277 240.968 290.869 242.176 295.197C242.182 295.378 242.127 295.555 242.019 295.701C241.912 295.846 241.758 295.95 241.584 295.997C241.506 296.04 241.419 296.066 241.33 296.075C241.242 296.084 241.152 296.074 241.067 296.047C240.982 296.02 240.903 295.977 240.835 295.919C240.767 295.86 240.712 295.789 240.672 295.709C240.672 295.709 239.384 291.157 236.92 290.733Z" fill="#FAFAFA"/>
<path d="M234.44 291.253C234.44 291.253 234.528 290.965 235.072 290.877C235.76 290.757 235.968 290.997 235.968 290.997C235.968 290.997 237.92 292.397 238.584 296.077C238.584 296.077 238.76 296.685 237.904 296.877C237.048 297.069 237.048 296.373 237.048 296.373C237.048 296.373 235.928 291.757 234.44 291.253Z" fill="#FAFAFA"/>
<path d="M207.448 242.661C211.928 250.613 223.048 274.421 228.784 286.237C225.902 289.754 221.8 292.057 217.296 292.685L187.2 251.301L196.16 243.757L207.448 242.661Z" fill="#455A64"/>
<path d="M104.896 234.477C104.896 234.477 141.232 223.509 147.552 221.781C153.872 220.053 165.456 217.733 169 219.325C172.544 220.917 174.544 223.709 176.704 227.117C178.944 230.653 180.592 233.877 180.592 233.877C180.592 233.877 156.8 240.381 142.4 240.381C128 240.381 104.896 234.477 104.896 234.477Z" fill="#37474F"/>
<path d="M107.44 220.189C105.16 227.973 102.192 241.845 112.68 251.973C116.768 255.925 140.216 268.493 154.616 264.077C170.704 259.141 189.912 249.629 189.912 249.629C189.912 249.629 199.624 250.197 202.784 248.373C205.944 246.549 207.864 243.533 207.448 242.661C202.432 232.261 198.256 226.853 187.4 227.941C174.12 229.269 151.992 233.301 151.992 233.301L107.44 220.189Z" fill="#455A64"/>
<path d="M161.496 163.821C154.616 157.797 144.96 160.541 139.592 165.765C131.368 173.765 126.488 183.925 128.296 188.965C130.4 194.733 161.496 163.821 161.496 163.821Z" fill="#455A64"/>
<path d="M242.776 199.061C242.92 198.061 242.112 196.925 240.48 196.093L221.44 186.357C218.525 185.066 215.249 184.839 212.184 185.717L194.776 191.717C193.256 192.245 192.424 192.981 192.376 193.701C192.336 194.229 192.056 196.277 192.04 196.861C192.024 197.445 192.4 197.877 193.208 198.285C195.16 199.285 199.536 199.613 202.976 199.021L207.392 198.269C210.832 197.677 215.2 198.005 217.144 198.989C218.324 199.562 219.268 200.526 219.816 201.717L218.792 205.261C218.548 205.906 218.548 206.617 218.792 207.261L218.472 208.381C218.08 209.717 217.952 211.117 221.28 212.589C222.326 213.114 223.489 213.365 224.658 213.319C225.828 213.272 226.966 212.931 227.968 212.325L241.464 203.525C241.722 203.381 241.945 203.182 242.117 202.941C242.289 202.7 242.404 202.424 242.456 202.133C242.52 201.613 242.704 199.573 242.776 199.061Z" fill="#455A64"/>
<path d="M220.696 204.101L220.76 194.869L215.016 193.365L214.496 198.229C215.411 198.355 216.302 198.611 217.144 198.989C218.324 199.562 219.268 200.526 219.816 201.717L219.4 203.149L220.696 204.101Z" fill="#263238"/>
<path d="M241.72 196.917C243.456 198.517 243.584 198.989 243.104 205.293C242.624 211.597 241.192 211.765 239.576 210.685C237.96 209.605 236.864 206.605 234.88 207.829L241.72 196.917Z" fill="#455A64"/>
<path d="M193.544 195.165C195.496 196.165 199.872 196.493 203.312 195.901L207.728 195.149C211.168 194.557 215.536 194.885 217.48 195.869C219.424 196.853 220.68 198.749 220.288 200.085L218.792 205.261C218.4 206.597 218.272 207.997 221.6 209.469C222.647 209.993 223.809 210.244 224.978 210.197C226.147 210.151 227.286 209.81 228.288 209.205L241.784 200.445C243.536 199.309 242.952 197.357 240.48 196.093L221.44 186.357C218.525 185.066 215.249 184.839 212.184 185.717L194.776 191.717C192.136 192.629 191.584 194.173 193.544 195.165Z" fill="#404040"/>
<path opacity="0.2" d="M193.544 195.165C195.496 196.165 199.872 196.493 203.312 195.901L207.728 195.149C211.168 194.557 215.536 194.885 217.48 195.869C219.424 196.853 220.68 198.749 220.288 200.085L218.792 205.261C218.4 206.597 218.272 207.997 221.6 209.469C222.647 209.993 223.809 210.244 224.978 210.197C226.147 210.151 227.286 209.81 228.288 209.205L241.784 200.445C243.536 199.309 242.952 197.357 240.48 196.093L221.44 186.357C218.525 185.066 215.249 184.839 212.184 185.717L194.776 191.717C192.136 192.629 191.584 194.173 193.544 195.165Z" fill="black"/>
<path d="M235.848 196.045C235.832 195.941 235.789 195.842 235.723 195.759C235.657 195.677 235.571 195.613 235.472 195.573C235.136 195.416 234.772 195.328 234.401 195.313C234.03 195.297 233.66 195.356 233.312 195.485C232.976 195.621 232.808 195.805 232.792 196.005C232.776 196.205 232.72 196.621 232.712 196.757C232.704 196.893 232.832 197.117 233.088 197.261C233.767 197.577 234.544 197.611 235.248 197.357C235.568 197.229 235.744 197.045 235.768 196.853C235.792 196.661 235.856 196.197 235.848 196.045Z" fill="#263238"/>
<path d="M231.248 197.933C231.236 197.824 231.194 197.721 231.128 197.634C231.062 197.546 230.973 197.479 230.872 197.437C230.536 197.28 230.171 197.192 229.801 197.177C229.43 197.161 229.06 197.22 228.712 197.349C228.392 197.477 228.216 197.661 228.2 197.845C228.184 198.029 228.12 198.493 228.112 198.645C228.124 198.754 228.165 198.858 228.232 198.945C228.298 199.032 228.386 199.1 228.488 199.141C229.167 199.457 229.943 199.491 230.648 199.237C230.968 199.109 231.144 198.925 231.168 198.741C231.192 198.557 231.248 198.085 231.248 197.933Z" fill="#37474F"/>
<path d="M231.528 195.893C231.528 195.717 231.408 195.533 231.152 195.389C230.473 195.074 229.696 195.039 228.992 195.293C228.672 195.421 228.496 195.605 228.472 195.797C228.448 195.989 228.408 196.429 228.392 196.557C228.376 196.685 228.504 196.925 228.768 197.077C229.104 197.234 229.468 197.323 229.839 197.338C230.21 197.353 230.58 197.295 230.928 197.165C231.256 197.037 231.432 196.845 231.448 196.653C231.464 196.461 231.52 196.029 231.528 195.893Z" fill="#263238"/>
<path d="M235.56 198.149C235.56 197.973 235.448 197.789 235.184 197.645C234.85 197.487 234.487 197.397 234.118 197.38C233.748 197.364 233.379 197.421 233.032 197.549C232.712 197.677 232.536 197.861 232.512 198.045C232.488 198.229 232.448 198.677 232.432 198.845C232.416 199.013 232.536 199.213 232.808 199.373C233.488 199.687 234.265 199.719 234.968 199.461C235.288 199.333 235.456 199.149 235.48 198.965C235.504 198.781 235.56 198.285 235.56 198.149Z" fill="#37474F"/>
<path d="M233.312 195.485C232.672 195.741 232.616 196.205 233.168 196.517C233.847 196.833 234.624 196.867 235.328 196.613C235.968 196.349 236.024 195.885 235.472 195.573C235.136 195.416 234.772 195.328 234.401 195.313C234.03 195.297 233.66 195.356 233.312 195.485Z" fill="#455A64"/>
<path d="M228.712 197.365C228.08 197.621 228.016 198.085 228.568 198.397C229.247 198.713 230.023 198.747 230.728 198.493C231.368 198.229 231.432 197.765 230.872 197.453C230.536 197.296 230.171 197.208 229.801 197.193C229.43 197.177 229.06 197.236 228.712 197.365Z" fill="#455A64"/>
<path d="M228.992 195.293C228.352 195.557 228.288 196.013 228.848 196.325C229.184 196.484 229.548 196.574 229.919 196.59C230.289 196.607 230.66 196.549 231.008 196.421C231.64 196.165 231.704 195.701 231.152 195.389C230.473 195.074 229.697 195.039 228.992 195.293Z" fill="#455A64"/>
<path d="M233.032 197.549C232.392 197.805 232.328 198.269 232.888 198.581C233.567 198.897 234.344 198.931 235.048 198.677C235.68 198.413 235.744 197.957 235.184 197.645C234.85 197.487 234.487 197.397 234.118 197.38C233.748 197.364 233.379 197.421 233.032 197.549Z" fill="#455A64"/>
<path d="M218.52 187.629L216.496 186.501L214.2 187.437L212.176 186.309L209.872 187.253L209.784 188.109L210.96 188.765L209.6 189.317L209.504 190.173L211.528 191.301L213.824 190.357L215.848 191.485L218.144 190.549L218.24 189.693L217.064 189.037L218.424 188.477L218.52 187.629Z" fill="#37474F"/>
<path d="M216.496 186.501L214.2 187.437L212.176 186.309L209.872 187.253L211.896 188.381L209.6 189.317L211.616 190.445L213.92 189.509L215.936 190.637L218.24 189.693L216.216 188.565L218.52 187.629L216.496 186.501Z" fill="#455A64"/>
<path d="M213.92 189.509L213.824 190.357L211.528 191.301L211.616 190.445L213.92 189.509Z" fill="#263238"/>
<path d="M216.216 188.565L217.064 189.037L218.424 188.477L218.52 187.629L216.216 188.565Z" fill="#263238"/>
<path d="M218.24 189.693L218.144 190.549L215.848 191.485L215.936 190.637L218.24 189.693Z" fill="#263238"/>
<path d="M211.896 188.381L209.872 187.253L209.776 188.149L210.96 188.765L211.896 188.381Z" fill="#263238"/>
<path d="M194.6 185.797C199.4 184.709 202.256 185.549 206.344 185.381C207.664 185.333 208.784 184.621 209.432 184.741C210.672 184.981 210.576 186.269 209.776 187.141C208.976 188.013 208.056 188.837 204.512 189.389C201.488 189.869 201.368 189.525 197.824 190.621L193.944 192.445L192.584 189.109L194.6 185.797Z" fill="#B16668"/>
<path d="M203.2 185.381C200.65 184.286 197.835 183.964 195.104 184.453C191.192 185.381 192.592 189.389 192.592 189.389L203.2 185.381Z" fill="#B16668"/>
<path d="M183.912 165.061L172.312 175.437L156.992 170.061L167.936 154.853L183.912 165.061Z" fill="#B16668"/>
<path d="M195.44 145.133C195.44 145.133 199.328 151.037 198.888 151.621C198.448 152.205 195.576 152.725 195.576 152.725L195.44 145.133Z" fill="#9A4A4D"/>
<path d="M184.632 128.829C192.504 130.485 194.776 133.949 195.52 146.429C196.32 159.501 194.96 163.613 193.248 165.373C192.088 166.557 185.648 166.773 182.4 165.877C178.328 164.757 169.136 161.501 164.8 154.925C159.744 147.189 158.4 136.709 163.832 132.405C171.488 126.381 181.432 128.149 184.632 128.829Z" fill="#B16668"/>
<path d="M182.76 165.989C186.144 166.837 191.328 166.493 192.888 165.645C190.982 166.007 189.017 165.889 187.168 165.301C185.325 164.772 183.574 163.962 181.976 162.901L182.76 165.989Z" fill="#9A4A4D"/>
<path d="M197.264 134.229C195.016 135.701 192.312 136.269 189.656 136.629C189.816 138.749 189.096 140.829 188.392 142.837C187.904 144.229 186.16 148.589 184.392 146.133C183.136 144.357 181.992 142.741 179.512 143.117C175.416 143.725 174.864 148.949 177.44 152.125C180.016 155.301 182.432 154.085 182.432 154.085C182.432 154.085 182.68 159.685 179.624 163.629C177.97 164.427 176.17 164.876 174.336 164.949C172.502 165.022 170.672 164.717 168.96 164.053C165.072 162.677 159.52 157.597 157.52 153.693C152.024 142.933 152.224 132.757 159.264 129.781C160.064 124.701 164.064 122.429 168.576 121.381C174.896 119.925 181.336 124.021 187.464 121.557C188.76 121.037 189.952 120.285 191.272 119.845C191.628 119.683 192.016 119.604 192.406 119.614C192.797 119.624 193.181 119.722 193.528 119.901C194.047 120.348 194.378 120.973 194.456 121.653C194.82 122.857 194.706 124.156 194.136 125.277C195.044 124.811 196.013 124.477 197.016 124.285C197.518 124.195 198.034 124.212 198.529 124.336C199.025 124.461 199.488 124.689 199.888 125.005C200.569 125.679 200.962 126.591 200.984 127.549C201.192 130.221 199.496 132.757 197.264 134.229Z" fill="#263238"/>
<path d="M159.2 131.485L154.488 128.709C154.868 128.11 155.467 127.683 156.157 127.516C156.847 127.35 157.574 127.459 158.186 127.819C158.798 128.179 159.245 128.763 159.434 129.447C159.623 130.131 159.539 130.862 159.2 131.485Z" fill="#263238"/>
<path d="M161.496 163.821C152.824 161.229 145.68 162.541 134.352 173.333C121.936 185.133 112.8 205.181 109.6 226.805C109.6 226.805 110.024 236.797 121.6 243.445C133.88 250.493 152.856 248.773 160.48 236.085C160.48 236.085 162.08 224.781 167.144 218.733C170.424 214.813 178.008 206.157 183.608 199.973C188.48 194.589 193.568 181.461 185.912 175.277C183.664 173.469 181.456 172.077 178.344 170.029C170.4 171.437 160.072 166.733 161.496 163.821Z" fill="#404040"/>
<path opacity="0.75" d="M161.496 163.821C152.824 161.229 145.68 162.541 134.352 173.333C121.936 185.133 112.8 205.181 109.6 226.805C109.6 226.805 110.024 236.797 121.6 243.445C133.88 250.493 152.856 248.773 160.48 236.085C160.48 236.085 162.08 224.781 167.144 218.733C170.424 214.813 178.008 206.157 183.608 199.973C188.48 194.589 193.568 181.461 185.912 175.277C183.664 173.469 181.456 172.077 178.344 170.029C170.4 171.437 160.072 166.733 161.496 163.821Z" fill="white"/>
<path opacity="0.1" d="M184.312 199.157L184.696 198.661L184.864 198.437L185.28 197.845C185.28 197.797 185.352 197.749 185.384 197.693C185.56 197.432 185.736 197.165 185.912 196.893C185.93 196.869 185.944 196.842 185.952 196.813C186.112 196.565 186.264 196.301 186.416 196.013L186.52 195.821C186.656 195.573 186.8 195.317 186.928 195.021C186.958 194.975 186.985 194.927 187.008 194.877C187.51 193.89 187.956 192.875 188.344 191.837V191.781C189.31 189.288 189.812 186.639 189.824 183.965C187.199 188.284 183.827 192.101 179.864 195.237C174.8 199.237 168.848 202.045 164.056 206.357C158.984 210.933 154.968 216.757 150.528 221.933C148.744 223.997 146.128 228.109 143.408 227.893C140.088 227.629 137.528 223.165 136.136 220.141C133.912 215.341 132.256 209.461 129.264 205.077C126.648 201.245 122.472 196.213 117.952 197.565C113.863 206.891 111.054 216.727 109.6 226.805C109.6 226.805 110.024 236.797 121.6 243.445C122.632 244.046 123.701 244.58 124.8 245.045C125.136 245.101 125.472 245.173 125.8 245.253C127.456 245.685 129 246.493 130.704 246.853L131.312 246.973L132 247.093L132.736 247.205L133.36 247.293L134.16 247.389L134.712 247.437L135.576 247.501H136.096H136.976H138.4H138.96L139.76 247.461L140.392 247.413L141.12 247.349L141.816 247.269L142.48 247.181L143.28 247.053L143.8 246.957C144.144 246.893 144.48 246.829 144.816 246.749L145.032 246.701C151.328 245.221 157.136 241.701 160.528 236.053C160.528 236.053 160.608 235.509 160.776 234.605C160.832 234.341 160.888 234.053 160.952 233.733C161.08 233.109 161.248 232.373 161.448 231.565C162.136 228.706 163.106 225.921 164.344 223.253C164.792 222.314 165.297 221.403 165.856 220.525C166.136 220.093 166.424 219.677 166.728 219.277L167.2 218.733L167.864 217.933C170.944 214.293 176.608 207.821 181.464 202.389L183.648 199.989L184.176 199.365L184.312 199.157Z" fill="#404040"/>
<path d="M235.328 211.877C232.648 216.149 232.128 218.829 220.536 219.733C220.536 219.733 198.784 233.381 191.8 235.885C184.816 238.389 182.296 234.461 180.84 228.133C179.384 221.805 175.568 197.933 175.568 197.933C175.568 197.933 172.536 183.205 184.904 174.837C190.144 178.837 192.904 182.925 193.784 189.965C194.816 198.389 196.32 218.173 196.32 218.173C196.32 218.173 214.664 210.173 217.432 207.421C218.246 206.557 218.982 205.623 219.632 204.629C220.8 203.029 222.448 201.285 222.912 199.181C223.64 195.845 225.176 196.309 225.728 198.141C226.373 200.501 226.353 202.992 225.672 205.341C225.672 205.341 231.344 209.797 234.128 208.301L234.88 207.821C235.19 207.602 235.568 207.5 235.946 207.534C236.324 207.568 236.678 207.735 236.944 208.005C237.096 208.773 236.968 209.269 235.328 211.877Z" fill="#B16668"/>
<path d="M183.512 173.485C190.488 176.773 193.912 182.029 194.632 189.981C195.352 197.933 196.32 211.749 196.32 211.749C196.32 211.749 195.888 216.789 189.216 219.133C187.331 219.829 185.309 220.071 183.314 219.841C181.318 219.61 179.405 218.913 177.728 217.805L174.96 199.805C174.96 199.805 171.048 180.333 183.512 173.485Z" fill="#455A64"/>
<path d="M132.848 231.701C121.432 217.733 110.816 200.973 102.032 195.909C86.2239 186.805 54.1119 206.813 50.5999 252.469C47.0879 298.125 80.7999 323.709 113.384 330.733C130.064 334.317 151.984 330.685 160.584 327.709C186.8 318.629 201.48 305.925 207.784 288.365C214.664 269.117 209.456 257.541 200.496 252.613C196.46 250.45 191.821 249.684 187.304 250.437C155.432 255.429 141.688 242.517 132.848 231.701Z" fill="#404040"/>
<path opacity="0.2" d="M172.68 322.853L174.12 322.181C176.408 310.981 175.12 300.485 170.24 290.773C165.44 281.293 157.288 272.413 145.216 263.573C127.416 250.589 120.416 238.269 113.68 226.357C111.208 221.989 108.88 217.861 106.048 213.789C99.7518 204.701 93.4718 199.925 86.2958 198.773C83.3688 198.331 80.3852 198.434 77.4958 199.077C76.5091 199.717 75.5278 200.419 74.5518 201.181C78.2393 199.896 82.1799 199.506 86.0478 200.045C92.8558 201.141 98.8478 205.741 104.952 214.525C107.736 218.525 110.064 222.653 112.52 226.989C119.336 239.029 126.392 251.469 144.416 264.589C160 275.997 179.128 294.061 172.68 322.853Z" fill="black"/>
<path opacity="0.1" d="M113.384 330.733C130.064 334.317 151.984 330.685 160.584 327.709C186.8 318.629 201.48 305.925 207.784 288.365C207.952 287.893 208.096 287.437 208.248 286.973L207.864 286.821C201.152 284.637 193.936 287.253 187.288 289.613C170.568 295.549 151.672 299.941 135.488 292.685C124.832 287.885 113.848 280.421 108.184 270.205C102.52 259.989 99.9037 248.317 95.7917 237.405C93.9357 232.485 92.2077 226.125 88.0317 221.333C84.1197 216.853 78.9597 213.597 73.0157 213.605C68.1357 213.605 63.6237 215.077 59.4157 220.053C54.8717 228.781 51.5997 239.629 50.6157 252.517C47.0877 298.133 80.7997 323.709 113.384 330.733Z" fill="black"/>
<path d="M346.76 292.765L369.48 279.645C370.074 279.257 370.568 278.735 370.922 278.121C371.276 277.507 371.481 276.818 371.52 276.109V276.373C371.482 275.665 371.277 274.976 370.923 274.362C370.568 273.747 370.074 273.225 369.48 272.837L323.792 246.437C323.16 246.118 322.461 245.952 321.752 245.952C321.044 245.952 320.345 246.118 319.712 246.437L296.992 259.557C296.398 259.943 295.904 260.464 295.549 261.077C295.195 261.69 294.99 262.378 294.952 263.085V262.829C294.99 263.537 295.195 264.225 295.549 264.838C295.904 265.451 296.398 265.972 296.992 266.357L342.68 292.757C343.312 293.078 344.011 293.246 344.719 293.247C345.428 293.248 346.127 293.083 346.76 292.765Z" fill="#37474F"/>
<path d="M344.728 258.549L369.488 272.837C370.082 273.225 370.576 273.747 370.931 274.361C371.285 274.976 371.49 275.665 371.528 276.373V276.109C371.489 276.817 371.284 277.507 370.93 278.121C370.576 278.735 370.082 279.257 369.488 279.645L346.768 292.765C346.139 293.096 345.438 293.264 344.728 293.253V258.549Z" fill="#263238"/>
<path d="M369.488 275.197L346.768 288.333C346.137 288.657 345.438 288.826 344.728 288.826C344.019 288.826 343.32 288.657 342.688 288.333L297 261.933C295.872 261.285 295.872 260.229 297 259.581L319.72 246.461C320.353 246.142 321.052 245.976 321.76 245.976C322.469 245.976 323.168 246.142 323.8 246.461L369.488 272.861C370.616 273.493 370.616 274.549 369.488 275.197Z" fill="#455A64"/>
<path d="M369.488 270.885V273.053L345.904 286.653C345.645 286.81 345.356 286.91 345.056 286.949C344.536 287.024 344.005 286.92 343.552 286.653L297 259.781V257.533L342.688 283.981C343.32 284.302 344.019 284.47 344.728 284.47C345.437 284.47 346.136 284.302 346.768 283.981L369.488 270.885Z" fill="#404040"/>
<path opacity="0.2" d="M369.488 270.885V273.053L345.904 286.653C345.645 286.81 345.356 286.91 345.056 286.949H344.72V284.453C345.433 284.469 346.139 284.301 346.768 283.965L369.488 270.885Z" fill="black"/>
<path d="M346.768 283.997L369.488 270.885C370.082 270.498 370.577 269.976 370.932 269.362C371.286 268.747 371.49 268.058 371.528 267.349V263.149C371.49 262.441 371.286 261.751 370.932 261.137C370.577 260.523 370.082 260.001 369.488 259.613L323.8 233.213C323.167 232.894 322.469 232.728 321.76 232.728C321.051 232.728 320.353 232.894 319.72 233.213L297 246.325C296.407 246.714 295.913 247.236 295.559 247.85C295.205 248.465 294.999 249.153 294.96 249.861V254.061C294.998 254.76 295.204 255.439 295.559 256.042C295.914 256.644 296.408 257.153 297 257.525L342.688 283.973C343.317 284.301 344.016 284.474 344.725 284.478C345.434 284.482 346.135 284.317 346.768 283.997Z" fill="#37474F"/>
<path d="M344.728 245.317L369.488 259.613C370.082 260 370.577 260.523 370.932 261.137C371.286 261.751 371.49 262.441 371.528 263.149V267.349C371.49 268.058 371.286 268.747 370.932 269.362C370.577 269.976 370.082 270.498 369.488 270.885L346.768 283.997C346.141 284.333 345.439 284.501 344.728 284.485V245.317Z" fill="#263238"/>
<path d="M369.488 261.973L346.768 275.085C346.136 275.405 345.437 275.571 344.728 275.571C344.02 275.571 343.321 275.405 342.688 275.085L297 248.685C295.872 248.037 295.872 246.981 297 246.285L319.72 233.173C320.353 232.854 321.052 232.688 321.76 232.688C322.469 232.688 323.168 232.854 323.8 233.173L369.488 259.573C370.616 260.261 370.616 261.317 369.488 261.973Z" fill="#455A64"/>
<path d="M337.8 251.533C340.32 252.981 340.32 255.325 337.8 256.773C336.386 257.483 334.826 257.853 333.244 257.853C331.662 257.853 330.102 257.483 328.688 256.773C326.176 255.325 326.176 252.981 328.688 251.533C330.1 250.815 331.661 250.441 333.244 250.441C334.828 250.441 336.389 250.815 337.8 251.533Z" fill="#404040"/>
<path d="M300.704 253.077C300.938 253.229 301.133 253.435 301.272 253.677C301.411 253.919 301.491 254.191 301.504 254.469C301.504 254.981 301.144 255.197 300.704 254.949C300.471 254.798 300.277 254.594 300.138 254.353C299.999 254.113 299.919 253.843 299.904 253.565C299.904 253.045 300.264 252.829 300.704 253.077Z" fill="#404040"/>
<path d="M300.704 256.157C300.938 256.31 301.132 256.515 301.271 256.757C301.41 256.999 301.49 257.271 301.504 257.549C301.504 258.061 301.144 258.277 300.704 258.029C300.471 257.878 300.277 257.674 300.138 257.433C299.999 257.193 299.919 256.923 299.904 256.645C299.904 256.125 300.264 255.909 300.704 256.157Z" fill="#404040"/>
<path d="M94.4478 120.765V108.765L104.584 107.877C104.728 107.865 104.873 107.895 105 107.965C105.392 108.181 113.56 112.877 113.688 112.949C113.784 113.006 113.866 113.083 113.927 113.175C113.989 113.267 114.029 113.373 114.045 113.483C114.06 113.593 114.051 113.705 114.016 113.811C113.982 113.916 113.925 114.013 113.848 114.093L103.104 125.741L94.4478 120.765Z" fill="#404040"/>
<path d="M103.104 125.733L113.848 114.085C113.952 113.976 114.02 113.838 114.043 113.69C114.066 113.541 114.042 113.389 113.976 113.253C113.91 113.118 113.804 113.007 113.672 112.934C113.541 112.861 113.39 112.83 113.24 112.845L103.104 113.725V125.733Z" fill="#404040"/>
<path d="M94.4478 108.749L103.104 113.733L113.24 112.845C113.359 112.835 113.48 112.851 113.592 112.893C112.792 112.413 105.376 108.157 105.008 107.957C104.877 107.882 104.725 107.851 104.576 107.869L94.4478 108.749Z" fill="#404040"/>
<path opacity="0.5" d="M94.4478 108.749L103.104 113.733L113.24 112.845C113.359 112.835 113.48 112.851 113.592 112.893C112.792 112.413 105.376 108.157 105.008 107.957C104.877 107.882 104.725 107.851 104.576 107.869L94.4478 108.749Z" fill="white"/>
<path d="M103.112 99.1894C103.061 98.3163 102.807 97.4672 102.37 96.7101C101.932 95.953 101.323 95.3089 100.592 94.8294L98.5438 93.6534C97.7649 93.2552 96.9026 93.0476 96.0278 93.0476C95.153 93.0476 94.2907 93.2552 93.5118 93.6534L62.1038 111.821C61.3719 112.298 60.7629 112.94 60.3264 113.696C59.8899 114.453 59.6382 115.301 59.5918 116.173V150.733C59.637 151.607 59.8881 152.457 60.3247 153.215C60.7612 153.973 61.3709 154.616 62.1038 155.093L64.1518 156.277C64.9324 156.67 65.794 156.874 66.6678 156.874C67.5416 156.874 68.4032 156.67 69.1838 156.277L100.592 138.109C101.326 137.633 101.937 136.989 102.375 136.232C102.813 135.474 103.065 134.623 103.112 133.749V99.1894Z" fill="#404040"/>
<path opacity="0.2" d="M59.5918 150.733C59.637 151.607 59.8881 152.457 60.3247 153.215C60.7612 153.973 61.3709 154.616 62.1038 155.093L64.1518 156.277C64.8615 156.632 65.6379 156.833 66.4305 156.867C67.2231 156.902 68.014 156.769 68.7518 156.477C67.5678 156.925 66.6718 156.253 66.6718 154.821V120.261C66.7022 119.386 66.9555 118.532 67.4078 117.781L60.3278 113.693C59.8755 114.444 59.6222 115.298 59.5918 116.173V150.733Z" fill="black"/>
<path opacity="0.5" d="M103.024 98.4774C102.736 97.4054 101.76 97.0694 100.624 97.7334L69.1839 115.909C68.4388 116.368 67.8266 117.013 67.4079 117.781L60.3359 113.701C60.7539 112.933 61.3628 112.286 62.1039 111.821L93.5119 93.6534C94.2925 93.2608 95.1542 93.0563 96.0279 93.0563C96.9017 93.0563 97.7633 93.2608 98.5439 93.6534L100.6 94.8374C101.23 95.2473 101.77 95.7816 102.187 96.4075C102.604 97.0333 102.889 97.7377 103.024 98.4774Z" fill="white"/>
<path d="M78.1276 118.509L80.9676 116.869V118.965L83.8156 117.325V121.797L86.6556 120.149V115.677L89.5036 114.037V111.941L92.3516 110.293V112.397L95.1916 110.749V115.221L98.0396 113.581V120.149L95.1916 121.797V125.077L92.3516 126.725V130.005L89.5036 131.653V134.933L86.6556 136.581L86.6636 139.861L83.8156 141.501V138.221L80.9676 139.861V136.581L78.1276 138.221V134.933L75.2796 136.581V133.293L72.4316 134.933V128.365L75.2796 126.725V122.253L78.1276 120.605V118.509Z" fill="white"/>
</svg>
