<svg width="488" height="326" viewBox="0 0 488 326" fill="none" xmlns="http://www.w3.org/2000/svg">
<g clip-path="url(#clip0_1115_1352)">
<path d="M135.43 95.6479H53.0293V39.2937H135.43V95.6479ZM53.68 94.9973H134.779V39.9444H53.68V94.9973Z" fill="#EBEBEB"/>
<path d="M59.4708 42.9439C59.4708 43.2682 59.3746 43.5852 59.1944 43.8548C59.0143 44.1245 58.7582 44.3346 58.4586 44.4587C58.1589 44.5829 57.8293 44.6153 57.5112 44.5521C57.1931 44.4888 56.901 44.3326 56.6717 44.1033C56.4423 43.874 56.2862 43.5818 56.2229 43.2638C56.1596 42.9457 56.1921 42.616 56.3162 42.3164C56.4403 42.0168 56.6505 41.7607 56.9201 41.5805C57.1898 41.4004 57.5068 41.3042 57.8311 41.3042C58.266 41.3042 58.683 41.477 58.9905 41.7845C59.298 42.092 59.4708 42.509 59.4708 42.9439Z" fill="#A6A6A6"/>
<path d="M66.1727 42.9439C66.174 43.27 66.0784 43.5892 65.898 43.8609C65.7176 44.1326 65.4606 44.3446 65.1595 44.47C64.8585 44.5954 64.5269 44.6286 64.207 44.5653C63.8871 44.5019 63.5931 44.345 63.3625 44.1144C63.1319 43.8838 62.975 43.5899 62.9117 43.27C62.8484 42.95 62.8815 42.6185 63.0069 42.3174C63.1323 42.0164 63.3443 41.7593 63.616 41.5789C63.8878 41.3985 64.2069 41.3029 64.5331 41.3042C64.9679 41.3042 65.385 41.477 65.6925 41.7845C66 42.092 66.1727 42.509 66.1727 42.9439Z" fill="#EBEBEB"/>
<path d="M72.8746 42.9439C72.8746 43.2682 72.7784 43.5852 72.5982 43.8548C72.4181 44.1245 72.162 44.3346 71.8624 44.4587C71.5628 44.5829 71.2331 44.6153 70.915 44.5521C70.5969 44.4888 70.3048 44.3326 70.0755 44.1033C69.8462 43.874 69.69 43.5818 69.6267 43.2638C69.5635 42.9457 69.5959 42.616 69.72 42.3164C69.8441 42.0168 70.0543 41.7607 70.3239 41.5805C70.5936 41.4004 70.9106 41.3042 71.2349 41.3042C71.6698 41.3042 72.0868 41.477 72.3943 41.7845C72.7018 42.092 72.8746 42.509 72.8746 42.9439Z" fill="#404040"/>
<path d="M135.104 45.8134H53.3545V46.464H135.104V45.8134Z" fill="#EBEBEB"/>
<path d="M48.0452 98.6866C48.3317 98.5098 48.6618 98.4162 48.9984 98.4162C49.3351 98.4162 49.6651 98.5098 49.9517 98.6866C50.1078 98.7864 50.2705 98.8774 50.4397 98.9599C50.6023 99.051 50.7715 99.1355 50.9407 99.2201C51.2451 99.358 51.5053 99.5776 51.6925 99.8544C51.8797 100.131 51.9866 100.454 52.0013 100.788L52.0728 103.131L59.6921 102.89L59.6206 100.554C59.6107 100.217 59.695 99.8837 59.864 99.5917C60.0329 99.2998 60.2798 99.0607 60.5771 98.9013C60.9113 98.7227 61.235 98.525 61.5465 98.3092C61.8184 98.1151 62.1391 98.0007 62.4724 97.9789C62.8058 97.9571 63.1386 98.0286 63.4335 98.1856L65.4896 99.2917L69.0943 92.5703L67.0187 91.4837C66.7244 91.3253 66.4802 91.0878 66.3135 90.7982C66.1468 90.5085 66.0643 90.1781 66.0752 89.844C66.0817 89.4641 66.0687 89.084 66.0361 88.7054C66.0042 88.3713 66.0657 88.035 66.214 87.7339C66.3622 87.4328 66.5912 87.1789 66.8755 87.0006L68.8275 85.7709L64.8129 79.2642L62.8154 80.5005C62.5308 80.6761 62.203 80.7691 61.8686 80.7691C61.5342 80.7691 61.2064 80.6761 60.9219 80.5005C60.7657 80.405 60.6031 80.3139 60.4339 80.2272C60.2712 80.1361 60.1021 80.0515 59.9329 79.9734C59.6271 79.8339 59.366 79.6122 59.1787 79.333C58.9914 79.0539 58.8854 78.7282 58.8723 78.3923L58.8007 76.0564L51.1814 76.2906L51.253 78.62C51.263 78.9555 51.1794 79.2872 51.0117 79.5779C50.8439 79.8687 50.5985 80.107 50.303 80.2662C49.9712 80.4484 49.6524 80.6501 49.3335 80.8648C49.0603 81.0588 48.7387 81.173 48.4043 81.1948C48.07 81.2167 47.7362 81.1452 47.4401 80.9885L45.384 79.8888L41.7793 86.6037L43.8354 87.7098C44.1312 87.8682 44.3765 88.1065 44.5433 88.3976C44.7101 88.6887 44.7918 89.0208 44.7789 89.356C44.7979 89.7417 44.8369 90.1261 44.896 90.5077C44.9265 90.8416 44.8643 91.1774 44.7162 91.4782C44.5681 91.7789 44.3398 92.033 44.0566 92.2125L42.1046 93.4422L46.1192 99.9163L48.0452 98.6866ZM49.9582 86.6558C50.5421 85.5694 51.435 84.6804 52.5239 84.1011C53.6128 83.5219 54.849 83.2783 56.0762 83.4012C57.3035 83.5241 58.4668 84.008 59.4192 84.7917C60.3716 85.5754 61.0704 86.6238 61.4273 87.8044C61.7842 88.985 61.7833 90.2449 61.4245 91.425C61.0657 92.6051 60.3653 93.6524 59.4117 94.4346C58.458 95.2168 57.294 95.6989 56.0665 95.8199C54.8391 95.9409 53.6033 95.6954 52.5153 95.1144C51.0554 94.331 49.9661 93.0001 49.4866 91.4142C49.0072 89.8282 49.1768 88.1168 49.9582 86.6558Z" fill="#EBEBEB"/>
<path d="M425.12 168.861C425.405 168.684 425.734 168.59 426.07 168.59C426.405 168.59 426.734 168.684 427.02 168.861L427.508 169.141L428.015 169.394C428.319 169.532 428.58 169.752 428.767 170.029C428.954 170.306 429.061 170.629 429.076 170.963L429.147 173.305L436.767 173.064L436.695 170.728C436.686 170.393 436.771 170.062 436.94 169.772C437.109 169.483 437.355 169.246 437.651 169.089C437.982 168.905 438.304 168.706 438.614 168.49C438.888 168.298 439.21 168.184 439.544 168.162C439.878 168.14 440.211 168.211 440.508 168.366L442.564 169.473L446.169 162.751L444.113 161.652C443.818 161.492 443.573 161.253 443.407 160.963C443.24 160.672 443.158 160.34 443.169 160.005C443.176 159.628 443.163 159.25 443.13 158.873C443.098 158.538 443.16 158.201 443.308 157.899C443.456 157.597 443.685 157.342 443.969 157.162L445.921 155.932L441.907 149.426L439.909 150.668C439.625 150.844 439.297 150.937 438.963 150.937C438.628 150.937 438.3 150.844 438.016 150.668L437.528 150.395C437.365 150.304 437.196 150.219 437.027 150.141C436.721 150.003 436.46 149.783 436.272 149.505C436.085 149.227 435.979 148.902 435.966 148.567L435.895 146.224L428.275 146.458L428.347 148.794C428.357 149.129 428.274 149.46 428.106 149.75C427.938 150.039 427.692 150.276 427.397 150.434C427.062 150.616 426.738 150.818 426.427 151.039C426.154 151.232 425.832 151.345 425.497 151.366C425.163 151.387 424.83 151.314 424.534 151.156L422.478 150.057L418.906 156.811L420.962 157.91C421.256 158.071 421.499 158.31 421.666 158.6C421.832 158.891 421.915 159.222 421.905 159.556C421.899 159.936 421.912 160.316 421.944 160.695C421.975 161.03 421.912 161.366 421.763 161.667C421.613 161.968 421.383 162.222 421.099 162.4L419.147 163.63L423.161 170.136L425.12 168.861ZM427.033 156.811C427.617 155.724 428.51 154.836 429.6 154.257C430.689 153.678 431.926 153.435 433.153 153.559C434.38 153.683 435.543 154.167 436.495 154.952C437.447 155.736 438.145 156.785 438.502 157.966C438.858 159.147 438.856 160.407 438.496 161.587C438.136 162.767 437.435 163.814 436.481 164.595C435.526 165.377 434.362 165.858 433.134 165.978C431.906 166.098 430.671 165.851 429.583 165.269C428.86 164.882 428.22 164.356 427.7 163.721C427.18 163.086 426.79 162.355 426.553 161.569C426.316 160.783 426.237 159.959 426.319 159.142C426.401 158.326 426.644 157.533 427.033 156.811Z" fill="#EBEBEB"/>
<path d="M63.4137 118.623C63.6202 118.742 63.7901 118.915 63.9048 119.124C64.0195 119.333 64.0747 119.569 64.0644 119.807C64.0644 119.937 64.0644 120.067 64.0644 120.198C64.0644 120.328 64.0644 120.464 64.0644 120.594C64.0776 120.831 64.0234 121.067 63.9083 121.274C63.7932 121.481 63.6217 121.652 63.4137 121.766L61.9888 122.585L64.663 127.212L66.0815 126.392C66.2824 126.281 66.51 126.227 66.7394 126.236C66.9688 126.245 67.1914 126.317 67.3828 126.444C67.604 126.587 67.8383 126.717 68.0725 126.841C68.2826 126.945 68.4596 127.105 68.5837 127.304C68.7078 127.503 68.7741 127.732 68.7752 127.967V129.6H74.1758V127.967C74.1768 127.732 74.2432 127.503 74.3673 127.304C74.4914 127.105 74.6684 126.945 74.8785 126.841C75.1127 126.717 75.3405 126.587 75.5291 126.444C75.7208 126.318 75.9433 126.246 76.1726 126.237C76.4019 126.228 76.6293 126.281 76.8305 126.392L78.2489 127.212L80.9167 122.585L79.4917 121.766C79.2832 121.651 79.1115 121.479 78.9964 121.271C78.8812 121.062 78.8274 120.826 78.841 120.588C78.841 120.458 78.841 120.328 78.841 120.198C78.841 120.067 78.841 119.937 78.841 119.807C78.8274 119.569 78.8812 119.333 78.9964 119.124C79.1115 118.916 79.2832 118.744 79.4917 118.629L80.9102 117.81L78.2424 113.183L76.8305 114.003C76.6247 114.117 76.3921 114.172 76.1573 114.164C75.9224 114.156 75.6941 114.085 75.4966 113.958C75.2742 113.811 75.044 113.676 74.8069 113.554C74.5963 113.451 74.4189 113.291 74.2947 113.092C74.1705 112.893 74.1045 112.663 74.1042 112.429V110.795H68.7622V112.429C68.7619 112.663 68.6959 112.893 68.5717 113.092C68.4475 113.291 68.2701 113.451 68.0595 113.554C67.8216 113.675 67.5913 113.809 67.3698 113.958C67.176 114.079 66.9537 114.147 66.7252 114.155C66.4968 114.163 66.2703 114.111 66.0685 114.003L64.6695 113.216L61.9953 117.842L63.4137 118.623ZM71.4755 115.819C72.3418 115.817 73.1891 116.073 73.9101 116.553C74.6311 117.034 75.1934 117.717 75.5258 118.517C75.8582 119.317 75.9459 120.198 75.7776 121.048C75.6094 121.898 75.1929 122.679 74.5807 123.292C73.9686 123.905 73.1883 124.322 72.3387 124.492C71.4891 124.661 70.6083 124.575 69.8077 124.244C69.0072 123.913 68.3229 123.351 67.8415 122.631C67.36 121.911 67.103 121.064 67.103 120.198C67.1047 119.038 67.5657 117.926 68.3852 117.105C69.2046 116.285 70.3158 115.822 71.4755 115.819Z" fill="#EBEBEB"/>
<path d="M59.6402 185.44C59.6402 184.705 59.7378 182.746 59.7378 181.913C59.7378 178.341 58.4364 176.708 55.1376 176.63C53.576 176.532 52.6455 175.602 52.6455 174.281C52.6455 172.96 53.576 172.03 55.1376 171.932C58.469 171.782 59.7378 170.214 59.7378 166.597C59.7378 165.764 59.6402 163.805 59.6402 163.07C59.6402 158.327 61.6507 155.262 69.2375 153.629C69.7535 153.509 70.2957 153.586 70.7571 153.847C71.2184 154.107 71.5652 154.531 71.7288 155.035C71.8924 155.539 71.8609 156.086 71.6405 156.568C71.4202 157.05 71.027 157.431 70.5388 157.637C65.789 159.107 65.1058 160.623 65.1058 163.955C65.1058 164.931 65.2034 166.558 65.2034 167.573C65.2034 171.392 63.3425 173.253 60.1087 174.281C63.362 175.355 65.2034 177.17 65.2034 180.983C65.2034 182.011 65.1058 183.625 65.1058 184.607C65.1058 187.932 65.7564 189.455 70.5388 190.919C71.0376 191.117 71.4422 191.498 71.6705 191.984C71.8987 192.47 71.9336 193.024 71.7681 193.535C71.6025 194.046 71.2489 194.475 70.779 194.734C70.3091 194.994 69.758 195.065 69.2375 194.933C61.6507 193.248 59.6402 190.216 59.6402 185.44Z" fill="#EBEBEB"/>
<path d="M88.3214 163.051C88.3214 163.786 88.2237 165.744 88.2237 166.577C88.2237 170.195 89.5251 171.782 92.876 171.913C94.3921 172.01 95.3225 172.941 95.3225 174.262C95.3225 175.582 94.3921 176.513 92.876 176.61C89.5446 176.708 88.2237 178.322 88.2237 181.894C88.2237 182.727 88.3214 184.685 88.3214 185.42C88.3214 190.216 86.3173 193.228 78.7305 194.914C78.1982 195.086 77.619 195.04 77.1206 194.786C76.6221 194.531 76.2451 194.089 76.0726 193.557C75.9 193.025 75.946 192.446 76.2004 191.947C76.4548 191.449 76.8968 191.072 77.4292 190.899C82.127 189.435 82.8167 187.913 82.8167 184.588C82.8167 183.605 82.7191 181.985 82.7191 180.963C82.7191 177.15 84.5735 175.29 87.8073 174.262C84.554 173.181 82.7191 171.373 82.7191 167.553C82.7191 166.525 82.8167 164.911 82.8167 163.935C82.8167 160.604 82.127 159.088 77.4292 157.617C77.0058 157.485 76.6376 157.217 76.3813 156.855C76.125 156.493 75.9948 156.057 76.0107 155.613C76.0028 155.285 76.0739 154.959 76.218 154.663C76.3621 154.367 76.5751 154.111 76.839 153.914C77.1029 153.718 77.41 153.588 77.7346 153.535C78.0592 153.482 78.3918 153.507 78.7045 153.609C86.3173 155.269 88.3214 158.307 88.3214 163.051Z" fill="#EBEBEB"/>
<path d="M404.188 85.4065C404.57 85.7666 404.834 86.2338 404.945 86.7467C405.057 87.2597 405.011 87.7944 404.813 88.2807C404.615 88.767 404.275 89.1821 403.837 89.4716C403.399 89.761 402.884 89.9113 402.359 89.9026C401.636 89.9168 400.936 89.6484 400.407 89.1543L388.695 77.2731C388.565 77.2341 388.526 77.1495 388.487 77.0259C388.448 76.9917 388.404 76.9632 388.357 76.9413C388.301 76.8365 388.26 76.725 388.233 76.6095C388.2 76.5937 388.172 76.57 388.15 76.5404C388.129 76.5109 388.115 76.4765 388.11 76.4403C388.071 76.3557 388.071 76.2321 388.025 76.193C387.979 76.154 387.94 76.0239 387.94 75.9848V75.692C387.94 75.6074 387.901 75.5684 387.901 75.4383C387.901 75.3081 387.94 75.2756 387.94 75.2301V74.9438C387.94 74.8592 388.025 74.8136 388.025 74.7746C388.025 74.7355 388.071 74.5664 388.11 74.4428C388.149 74.3191 388.149 74.3972 388.149 74.3582C388.149 74.3191 388.279 74.0654 388.357 73.9808C388.357 73.9583 388.366 73.9368 388.382 73.921C388.397 73.9051 388.419 73.8962 388.441 73.8962C388.501 73.781 388.588 73.6826 388.695 73.6099L400.407 61.7287C400.912 61.2467 401.583 60.9777 402.281 60.9777C402.979 60.9777 403.65 61.2467 404.155 61.7287C404.407 61.9715 404.607 62.2626 404.744 62.5846C404.881 62.9065 404.952 63.2528 404.952 63.6026C404.952 63.9525 404.881 64.2987 404.744 64.6207C404.607 64.9427 404.407 65.2338 404.155 65.4766L394.304 75.4383L404.188 85.4065Z" fill="#EBEBEB"/>
<path d="M414.819 86.7403L425.028 62.4639C425.148 62.1839 425.322 61.9303 425.54 61.7177C425.758 61.5051 426.016 61.3378 426.299 61.2253C426.582 61.1128 426.885 61.0574 427.189 61.0623C427.494 61.0672 427.794 61.1322 428.073 61.2537C428.345 61.3711 428.59 61.5409 428.796 61.7534C429.001 61.9659 429.163 62.2169 429.271 62.492C429.379 62.7671 429.432 63.0608 429.426 63.3563C429.421 63.6519 429.357 63.9434 429.238 64.2142L419.029 88.5296C418.847 88.9413 418.549 89.2907 418.171 89.5347C417.793 89.7786 417.351 89.9065 416.901 89.9025C416.615 89.908 416.332 89.8525 416.069 89.7398C415.786 89.6301 415.528 89.4642 415.31 89.2523C415.093 89.0403 414.921 88.7866 414.804 88.5064C414.688 88.2262 414.629 87.9253 414.631 87.6218C414.634 87.3183 414.698 87.0184 414.819 86.7403Z" fill="#EBEBEB"/>
<path d="M449.415 76.9413C449.415 76.9517 449.411 76.9616 449.404 76.9689C449.397 76.9762 449.387 76.9804 449.376 76.9804C449.289 77.0875 449.191 77.1856 449.083 77.2732L437.371 89.1543C436.865 89.6353 436.193 89.9035 435.494 89.9035C434.796 89.9035 434.124 89.6353 433.617 89.1543C433.37 88.9088 433.174 88.6168 433.04 88.2952C432.906 87.9736 432.837 87.6287 432.837 87.2804C432.837 86.9321 432.906 86.5872 433.04 86.2656C433.174 85.944 433.37 85.652 433.617 85.4065L443.494 75.4383L433.617 65.4766C433.37 65.231 433.174 64.9391 433.04 64.6175C432.906 64.2959 432.837 63.951 432.837 63.6026C432.837 63.2543 432.906 62.9094 433.04 62.5878C433.174 62.2662 433.37 61.9742 433.617 61.7287C434.123 61.2462 434.795 60.9771 435.494 60.9771C436.193 60.9771 436.866 61.2462 437.371 61.7287L449.083 73.6099C449.19 73.6953 449.288 73.7912 449.376 73.8962C449.415 73.8962 449.415 73.9808 449.415 73.9808C449.493 74.1021 449.562 74.2281 449.624 74.3582C449.624 74.3972 449.669 74.3972 449.669 74.4428C449.695 74.5709 449.737 74.6954 449.793 74.8136C449.793 74.8592 449.832 74.8592 449.832 74.9438V75.2301C449.832 75.2756 449.877 75.3992 449.877 75.4383C449.877 75.4773 449.832 75.6074 449.832 75.6465V75.9848C449.832 76.0239 449.793 76.0239 449.793 76.0694C449.743 76.1899 449.701 76.3138 449.669 76.4403C449.669 76.4858 449.624 76.4858 449.624 76.5639C449.624 76.642 449.5 76.7786 449.415 76.9413Z" fill="#EBEBEB"/>
<path d="M38.7275 226.562C170.24 226.159 317.759 226.159 449.298 226.562C317.785 226.959 170.266 226.959 38.7275 226.562Z" fill="#263238"/>
<path d="M449.61 129.984C434.411 150.571 418.561 174.457 414.702 200.256C414.657 200.646 415.281 200.776 415.353 200.386C417.1 193.347 419.347 186.441 422.074 179.721C432.068 176.968 441.874 174.711 447.125 164.794C452.473 154.599 451.797 141.305 450.775 130.199C450.743 129.619 449.936 129.587 449.61 129.984Z" fill="#404040"/>
<path d="M422.282 179.538C429.114 164.215 437.898 148.833 449.018 136.237C449.09 136.152 449.207 136.269 449.142 136.354C441.848 145.326 436.304 155.099 430.923 165.042C435.953 159.934 441.47 155.36 446.24 149.94C446.331 149.836 446.481 149.992 446.389 150.096C441.659 155.776 436.486 161.944 430.325 166.148C428.667 169.184 426.995 172.242 425.308 175.322C425.724 175.088 426.147 174.886 426.577 174.671C426.648 174.639 426.713 174.75 426.642 174.789C426.173 175.023 425.705 175.277 425.217 175.478C424.416 176.929 423.629 178.38 422.803 179.825C422.569 180.144 422.12 179.864 422.282 179.538Z" fill="#263238"/>
<path d="M427.344 174.19C431.432 171.898 435.333 169.287 439.011 166.382C439.108 166.304 439.252 166.441 439.154 166.525C435.584 169.616 431.67 172.284 427.488 174.476C427.325 174.574 427.156 174.301 427.344 174.19Z" fill="#263238"/>
<path d="M412.965 196.43C412.997 196.742 413.524 196.742 413.518 196.43C413.602 187.932 413.518 179.395 413.654 170.852C415.834 166.46 420.506 164.027 423.759 160.507C426.097 157.927 428.131 155.089 429.824 152.048C433.838 144.89 436.018 136.77 436.851 128.624C437.749 119.514 434.3 89.5318 430.468 90.5728C428.483 91.1129 422.048 105.974 420.343 110.887C417.575 118.989 415.55 127.325 414.292 135.794C411.182 155.763 411.442 176.331 412.965 196.43Z" fill="#404040"/>
<path d="M412.906 159.765L412.945 159.726C413.407 148.97 415.834 138.111 418.099 127.68C420.545 116.443 423.402 105.857 429.16 95.8368C429.183 95.7995 429.22 95.7728 429.263 95.7621C429.305 95.7515 429.35 95.7578 429.388 95.7798C429.426 95.8017 429.454 95.8376 429.466 95.8798C429.478 95.922 429.473 95.9673 429.453 96.006C425.593 103.799 422.605 111.995 420.545 120.445C420.936 119.84 421.404 119.267 421.807 118.695C421.964 118.467 422.341 118.695 422.185 118.909C421.666 119.816 421.06 120.67 420.376 121.46C420.354 121.481 420.327 121.494 420.298 121.499C418.307 129.528 416.882 137.766 415.659 145.945C415.75 145.841 415.834 145.723 415.925 145.626C415.94 145.615 415.958 145.609 415.976 145.609C415.995 145.609 416.013 145.614 416.027 145.626C416.042 145.637 416.053 145.652 416.058 145.67C416.063 145.687 416.062 145.706 416.056 145.723C415.899 145.997 415.73 146.263 415.568 146.537C414.917 150.694 414.377 154.846 413.804 158.964C421.209 152.633 427.54 145.17 431.105 135.976C431.109 135.969 431.114 135.964 431.12 135.959C431.126 135.955 431.134 135.953 431.141 135.953C431.149 135.953 431.156 135.955 431.163 135.959C431.169 135.964 431.174 135.969 431.177 135.976C427.683 145.509 422.172 153.987 413.687 159.778L413.219 163.096C413.186 163.324 412.822 163.265 412.822 163.044C412.822 162.062 412.874 161.092 412.913 160.097C412.889 160.076 412.87 160.051 412.856 160.023C412.843 159.994 412.835 159.964 412.835 159.932C412.834 159.901 412.84 159.87 412.853 159.841C412.865 159.812 412.883 159.786 412.906 159.765Z" fill="#263238"/>
<path d="M416.427 144.175C422.087 135.716 427.371 127.524 431.516 118.187C431.561 118.083 431.743 118.187 431.698 118.265C428.21 127.544 423.324 136.946 416.732 144.396C416.544 144.546 416.277 144.35 416.427 144.175Z" fill="#263238"/>
<path d="M423.916 116.098C426.258 111.954 428.731 107.913 430.943 103.684C431.001 103.567 431.164 103.684 431.112 103.781C429.306 108.199 427.015 112.402 424.28 116.313C424.124 116.528 423.779 116.339 423.916 116.098Z" fill="#263238"/>
<path d="M422.998 117.907C423.005 117.91 423.011 117.915 423.015 117.922C423.019 117.928 423.022 117.936 423.022 117.943C423.022 117.951 423.019 117.958 423.015 117.965C423.011 117.971 423.005 117.976 422.998 117.979C422.991 117.976 422.985 117.971 422.981 117.965C422.977 117.958 422.975 117.951 422.975 117.943C422.975 117.936 422.977 117.928 422.981 117.922C422.985 117.915 422.991 117.91 422.998 117.907Z" fill="#263238"/>
<path d="M407.213 171.848C407.098 177.482 406.433 183.091 405.228 188.596C405.313 189.201 405.397 189.806 405.489 190.431C407.222 184.349 408.227 178.082 408.482 171.763C408.533 171.675 408.56 171.575 408.56 171.474C408.56 171.372 408.533 171.272 408.482 171.184C408.743 162.707 408.135 154.226 406.666 145.873C404.031 130.257 398.279 115.259 387.387 103.547C387.297 103.471 387.19 103.416 387.075 103.386C386.961 103.357 386.841 103.354 386.725 103.378C386.609 103.402 386.5 103.452 386.406 103.524C386.312 103.596 386.236 103.688 386.183 103.794C381.785 114.973 383.32 128.318 387.068 139.47C389.107 145.5 392.016 151.199 395.703 156.388C399.411 161.665 404.174 166.109 407.213 171.848Z" fill="#404040"/>
<path d="M388.643 108.778C398.969 125.54 406.152 145.404 407.031 165.204C407.031 165.556 406.458 165.647 406.38 165.289C406.139 163.506 405.866 161.743 405.58 159.992C401.311 155.9 396.926 151.579 393.868 146.472C393.809 146.38 393.939 146.276 394.011 146.354C397.726 150.603 401.168 154.956 405.391 158.717C404.658 154.336 403.775 150.026 402.743 145.788C402.463 145.47 402.196 145.138 401.923 144.825C401.747 144.617 402.04 144.311 402.229 144.52L402.476 144.793C401.021 138.978 399.22 133.255 397.082 127.654C394.479 124.518 391.512 121.798 389.599 118.031C389.589 118.013 389.586 117.991 389.592 117.971C389.597 117.951 389.611 117.934 389.629 117.924C389.647 117.913 389.668 117.91 389.688 117.916C389.709 117.921 389.726 117.935 389.736 117.953C391.221 120.144 392.815 122.259 394.512 124.29C395.208 125.091 395.969 125.839 396.692 126.613C394.308 120.54 391.481 114.651 388.233 108.993C388.204 108.939 388.199 108.875 388.217 108.817C388.235 108.758 388.276 108.709 388.331 108.681C388.385 108.652 388.448 108.647 388.507 108.665C388.566 108.683 388.614 108.724 388.643 108.778Z" fill="#263238"/>
<path d="M390.731 129.483C394.069 133.979 397.889 138.26 400.973 142.906C401.064 143.036 400.869 143.173 400.758 143.069C396.77 139.334 393.399 134.226 390.504 129.619C390.4 129.437 390.634 129.32 390.731 129.483Z" fill="#263238"/>
<path d="M401.461 143.914L401.604 144.058C401.702 144.155 401.546 144.305 401.448 144.207L401.305 144.064C401.188 143.966 401.344 143.797 401.461 143.914Z" fill="#263238"/>
<path d="M372.467 140.993C373.294 149.614 377.829 159.914 383.36 166.558C385.794 169.446 388.803 171.795 392.196 173.455C396.022 175.348 400.004 177.528 403.992 179.083C405.871 183.871 407.268 188.834 408.163 193.899C408.293 193.469 408.417 193.02 408.547 192.597C406.003 170.774 391.883 152.113 373.814 140.134C373.673 140.043 373.508 139.994 373.34 139.993C373.172 139.993 373.007 140.041 372.865 140.131C372.723 140.222 372.61 140.351 372.54 140.504C372.469 140.657 372.444 140.826 372.467 140.993Z" fill="#404040"/>
<path d="M378.688 147.448C378.558 147.33 378.733 147.103 378.87 147.207C388.448 154.299 397.089 164.645 401.897 175.582C402.027 175.882 401.617 176.142 401.448 175.843C400.609 174.372 399.75 172.941 398.845 171.535C394.72 170.761 390.816 167.859 387.784 165.1C387.699 165.029 387.823 164.905 387.901 164.977C389.476 166.413 391.225 167.645 393.106 168.646C394.792 169.499 396.601 170.039 398.351 170.722C396.822 168.295 395.228 165.966 393.568 163.708C389.124 162.198 384.902 159.472 381.206 156.746C381.089 156.661 381.206 156.466 381.323 156.544C385.05 158.799 388.894 160.854 392.84 162.699C390.324 159.377 387.608 156.211 384.706 153.219C383.307 152.477 381.883 151.735 380.523 150.942C380.412 150.877 380.523 150.688 380.614 150.733C381.743 151.127 382.82 151.656 383.822 152.308C382.188 150.662 380.503 149.035 378.688 147.448Z" fill="#263238"/>
<path d="M379.091 154.982C379.336 155.128 379.569 155.293 379.787 155.477C379.852 155.535 379.787 155.62 379.696 155.594C379.446 155.474 379.205 155.337 378.974 155.184C378.85 155.099 378.967 154.904 379.091 154.982Z" fill="#263238"/>
<path d="M392.391 186.156H431.587L427.728 226.556H396.249L392.391 186.156Z" fill="#455A64"/>
<path d="M393.132 193.912L392.391 186.156H431.587L431.112 191.159L393.132 193.912Z" fill="#37474F"/>
<path d="M434.242 179.2H389.743V189.038H434.242V179.2Z" fill="#455A64"/>
<path d="M394.799 27.2825H93.208V229.022H394.799V27.2825Z" fill="#DBDBDB"/>
<path d="M392.606 29.7419H95.4009V226.562H392.606V29.7419Z" fill="#263238"/>
<path d="M434.073 275.883H53.9272V289.859H434.073V275.883Z" fill="#C7C7C7"/>
<path d="M53.9272 275.883L93.208 229.022H394.792L434.073 275.883H53.9272Z" fill="#DBDBDB"/>
<path d="M394.779 250.266H94.3599L109.761 229.022H379.378L394.779 250.266Z" fill="#263238"/>
<path d="M389.398 242.842H99.7407L100.365 241.976H388.773L389.398 242.842Z" fill="#37474F"/>
<path d="M383.77 235.086H105.369L105.994 234.214H383.145L383.77 235.086Z" fill="#37474F"/>
<path d="M197.497 270.612L207.231 255.66H281.231L291.649 270.612H197.497Z" fill="#263238"/>
<path d="M271.881 281.498H217.258L215.904 275.883H273.241L271.881 281.498Z" fill="#DBDBDB"/>
<path d="M376.033 44.6943H111.973V211.89H376.033V44.6943Z" fill="#37474F"/>
<path d="M376.033 44.6943H111.973V51.1294H376.033V44.6943Z" fill="#404040"/>
<path d="M118.024 47.9087C118.024 48.1493 117.953 48.3846 117.819 48.5846C117.686 48.7847 117.496 48.9407 117.273 49.0328C117.051 49.1249 116.806 49.149 116.57 49.102C116.334 49.0551 116.117 48.9392 115.947 48.769C115.777 48.5989 115.661 48.3821 115.614 48.146C115.567 47.91 115.591 47.6654 115.683 47.443C115.776 47.2207 115.931 47.0307 116.132 46.897C116.332 46.7633 116.567 46.6919 116.808 46.6919C116.968 46.691 117.126 46.7219 117.274 46.7828C117.422 46.8436 117.557 46.9332 117.67 47.0464C117.783 47.1595 117.873 47.294 117.933 47.442C117.994 47.59 118.025 47.7486 118.024 47.9087Z" fill="#C7C7C7"/>
<path d="M122.976 47.9087C122.976 48.1493 122.905 48.3846 122.771 48.5846C122.637 48.7847 122.447 48.9407 122.225 49.0328C122.003 49.1249 121.758 49.149 121.522 49.102C121.286 49.0551 121.069 48.9392 120.899 48.769C120.729 48.5989 120.613 48.3821 120.566 48.146C120.519 47.91 120.543 47.6654 120.635 47.443C120.727 47.2207 120.883 47.0307 121.083 46.897C121.283 46.7633 121.519 46.6919 121.759 46.6919C121.919 46.691 122.078 46.7219 122.226 46.7828C122.374 46.8436 122.508 46.9332 122.622 47.0464C122.735 47.1595 122.824 47.294 122.885 47.442C122.946 47.59 122.977 47.7486 122.976 47.9087Z" fill="white"/>
<path d="M127.967 47.9087C127.967 48.1493 127.895 48.3846 127.762 48.5846C127.628 48.7847 127.438 48.9407 127.216 49.0328C126.993 49.1249 126.749 49.149 126.513 49.102C126.277 49.0551 126.06 48.9392 125.89 48.769C125.719 48.5989 125.604 48.3821 125.557 48.146C125.51 47.91 125.534 47.6654 125.626 47.443C125.718 47.2207 125.874 47.0307 126.074 46.897C126.274 46.7633 126.509 46.6919 126.75 46.6919C126.91 46.691 127.069 46.7219 127.217 46.7828C127.365 46.8436 127.499 46.9332 127.612 47.0464C127.725 47.1595 127.815 47.294 127.876 47.442C127.937 47.59 127.968 47.7486 127.967 47.9087Z" fill="#455A64"/>
<path d="M136.276 79.7131H128.845V81.9709H136.276V79.7131Z" fill="#EBEBEB"/>
<path d="M309.724 79.7131H145.04V81.9709H309.724V79.7131Z" fill="#EBEBEB"/>
<path d="M328.404 79.7131H314.292V81.9709H328.404V79.7131Z" fill="#404040"/>
<path d="M136.276 90.3906H128.845V92.6484H136.276V90.3906Z" fill="#EBEBEB"/>
<path d="M208.207 90.3906H152.282V92.6484H208.207V90.3906Z" fill="#A6A6A6"/>
<path d="M333.519 133.113H312.366V135.371H333.519V133.113Z" fill="#A6A6A6"/>
<path d="M198.46 122.429H145.04V124.687H198.46V122.429Z" fill="#A6A6A6"/>
<path d="M189.761 101.075H152.282V103.332H189.761V101.075Z" fill="#404040"/>
<path d="M333.226 101.075H193.918V103.332H333.226V101.075Z" fill="#A6A6A6"/>
<path d="M307.531 133.113H145.04V135.371H307.531V133.113Z" fill="#404040"/>
<path d="M326.83 90.3906H211.72V92.6484H326.83V90.3906Z" fill="#EBEBEB"/>
<path d="M136.276 101.075H128.845V103.332H136.276V101.075Z" fill="#EBEBEB"/>
<path d="M136.276 111.752H128.845V114.01H136.276V111.752Z" fill="#A6A6A6"/>
<path d="M188.947 111.752H145.04V114.01H188.947V111.752Z" fill="#EBEBEB"/>
<path d="M196.189 143.791H152.282V146.049H196.189V143.791Z" fill="#EBEBEB"/>
<path d="M309.776 154.475H191.986V156.733H309.776V154.475Z" fill="#EBEBEB"/>
<path d="M185.284 154.475H152.282V156.733H185.284V154.475Z" fill="#A6A6A6"/>
<path d="M328.398 122.429H201.479V124.687H328.398V122.429Z" fill="#EBEBEB"/>
<path d="M320.278 111.752H193.411V114.01H320.278V111.752Z" fill="#404040"/>
<path d="M136.276 122.429H128.845V124.687H136.276V122.429Z" fill="#EBEBEB"/>
<path d="M136.276 133.113H128.845V135.371H136.276V133.113Z" fill="#EBEBEB"/>
<path d="M136.276 143.791H128.845V146.049H136.276V143.791Z" fill="#A6A6A6"/>
<path d="M136.276 154.475H128.845V156.733H136.276V154.475Z" fill="#EBEBEB"/>
<path d="M136.276 164.17H128.845V166.427H136.276V164.17Z" fill="#EBEBEB"/>
<path d="M232.151 164.17H145.04V166.427H232.151V164.17Z" fill="#EBEBEB"/>
<path d="M131.786 69.0422C131.844 69.0992 131.884 69.1721 131.901 69.2518C131.917 69.3315 131.91 69.4143 131.879 69.4897C131.848 69.565 131.796 69.6296 131.728 69.675C131.661 69.7205 131.581 69.7448 131.5 69.7449C131.389 69.7454 131.282 69.7035 131.201 69.6278L129.359 67.7669C129.359 67.7669 129.359 67.7669 129.327 67.7279C129.324 67.7106 129.324 67.6931 129.327 67.6758C129.327 67.6758 129.327 67.6758 129.327 67.6368V67.5912C129.327 67.5912 129.327 67.5912 129.327 67.5522V67.5066C129.327 67.5066 129.327 67.4741 129.327 67.4546C129.326 67.4351 129.326 67.4155 129.327 67.396C129.336 67.3779 129.349 67.3622 129.366 67.3505L131.207 65.4896C131.286 65.414 131.391 65.3718 131.5 65.3718C131.609 65.3718 131.714 65.414 131.793 65.4896C131.832 65.5277 131.863 65.5733 131.884 65.6236C131.905 65.6738 131.916 65.7278 131.916 65.7824C131.916 65.8369 131.905 65.8909 131.884 65.9412C131.863 65.9914 131.832 66.037 131.793 66.0752L130.244 67.6368L131.786 69.0422Z" fill="#404040"/>
<path d="M133.452 69.2504L135.052 65.4375C135.071 65.3936 135.098 65.3539 135.132 65.3205C135.166 65.2872 135.206 65.261 135.25 65.2434C135.294 65.2259 135.342 65.2173 135.389 65.2182C135.437 65.2191 135.484 65.2295 135.527 65.2488C135.57 65.2666 135.609 65.2927 135.642 65.3256C135.674 65.3585 135.7 65.3976 135.718 65.4405C135.735 65.4835 135.744 65.5294 135.744 65.5758C135.744 65.6222 135.734 65.6681 135.716 65.7108L134.109 69.5302C134.081 69.5946 134.034 69.6494 133.975 69.6876C133.916 69.7257 133.847 69.7457 133.777 69.7449C133.734 69.7541 133.69 69.7541 133.647 69.7449C133.599 69.7283 133.556 69.7015 133.519 69.6666C133.483 69.6316 133.455 69.5892 133.436 69.5423C133.418 69.4954 133.409 69.4451 133.412 69.3947C133.415 69.3443 133.428 69.2951 133.452 69.2504Z" fill="#404040"/>
<path d="M138.878 67.7084L138.833 67.7605L136.985 69.6214C136.906 69.6969 136.801 69.7391 136.692 69.7391C136.583 69.7391 136.478 69.6969 136.399 69.6214C136.36 69.5832 136.329 69.5377 136.308 69.4874C136.287 69.4371 136.276 69.3831 136.276 69.3286C136.276 69.274 136.287 69.2201 136.308 69.1698C136.329 69.1195 136.36 69.0739 136.399 69.0358L137.941 67.4742L136.393 65.9126C136.354 65.8744 136.323 65.8288 136.302 65.7786C136.28 65.7283 136.27 65.6743 136.27 65.6198C136.27 65.5652 136.28 65.5112 136.302 65.461C136.323 65.4107 136.354 65.3651 136.393 65.327C136.471 65.2514 136.576 65.2092 136.685 65.2092C136.795 65.2092 136.899 65.2514 136.978 65.327L138.82 67.1879L138.865 67.2334C138.877 67.2523 138.888 67.2719 138.898 67.292C138.896 67.3115 138.896 67.3311 138.898 67.3505V67.3961V67.4481C138.897 67.4677 138.897 67.4872 138.898 67.5067L138.878 67.7084Z" fill="#404040"/>
<path d="M238.007 159.205H236.992V171.392H238.007V159.205Z" fill="#EBEBEB"/>
<path d="M151.469 299.86C151.469 299.86 177.086 288.473 181.302 286.547C189.761 282.689 204.908 270.801 211.389 266.617C215.176 264.171 212.15 255.901 200.633 257.306C189.116 258.712 167.644 269.929 165.797 267.515C163.949 265.101 193.775 247.182 197.959 245.737C202.143 244.293 215.956 249.915 224.305 247.039C232.653 244.163 228.3 236.745 221.65 233.954C212.84 230.252 196.059 227.89 189.884 227.89C183.709 227.89 164.71 241.71 164.71 241.71C164.71 241.71 190.333 231.631 193.502 229.764C196.671 227.896 211.922 227.603 221.565 224.148C231.208 220.693 224.91 210.816 208.786 210.959C199.306 210.951 189.844 211.774 180.508 213.419C175.953 214.108 148.443 232.327 148.443 232.327C148.443 232.327 153.772 231.175 155.932 230.453C158.093 229.731 179.552 216.21 182.532 214.636C193.782 208.682 201.739 200.718 198.148 195.695C195.545 192.044 180.528 196.71 173.214 200.9C163.493 206.463 135.937 226.862 135.937 226.862L170.475 203.548C170.475 203.548 167.683 201.232 158.405 203.275C152.92 204.485 130.426 217.928 126.854 220.654C116.053 228.885 87.0073 264.307 87.0073 264.307L110.763 294.791L151.469 299.86Z" fill="#D3766A"/>
<path d="M137.551 226.048C145.698 219.242 152.341 211.571 169.681 203.275C169.74 203.275 169.681 203.099 169.616 203.112C157.253 206.274 145.587 216.327 137.284 225.684C137.011 226.029 137.226 226.315 137.551 226.048Z" fill="#263238"/>
<path d="M149.699 232.164C156.915 227.857 165.263 222.073 173.884 217.85C178.114 215.774 179.935 215.351 185.993 212.703C186.052 212.703 185.993 212.547 185.941 212.56C180.456 213.952 179.551 213.79 173.663 216.015C165.998 218.91 153.421 228.228 149.452 231.885C149.139 232.171 149.315 232.386 149.699 232.164Z" fill="#263238"/>
<path d="M163.031 241.105C170.839 237.955 180.319 232.301 188.375 229.698C190.392 229.048 193.476 228.631 198.089 228.631C198.336 228.631 198.642 228.358 198.057 228.254C194.153 227.538 190.281 227.603 187.874 228.254C179.974 230.46 167.313 237.78 162.836 240.786C162.485 241.033 162.621 241.274 163.031 241.105Z" fill="#263238"/>
<path d="M151.469 299.866L135.547 325.281H18.0366L86.9813 264.307L145.867 257.807L151.469 299.866Z" fill="#D3766A"/>
<path d="M135.547 325.281L139.757 318.553L51.8322 295.39L18.0366 325.281H135.547Z" fill="#404040"/>
<path opacity="0.1" d="M135.547 325.281L139.757 318.553L51.8322 295.39L18.0366 325.281H135.547Z" fill="black"/>
<path opacity="0.1" d="M18.7979 324.605L22.1032 321.677V325.275H18.7979V324.605Z" fill="black"/>
<path opacity="0.1" d="M134.695 317.22V325.275H131.389V316.348L134.695 317.22Z" fill="black"/>
<path opacity="0.1" d="M112.175 311.286L122.937 314.122H112.175V325.275H108.87V314.122H89.6554V325.275H86.3501V314.122H67.1359V325.275H63.8305V314.122H44.6228V325.275H41.3174V314.122H30.6465L34.3878 310.817H41.3174V304.688L44.6228 301.766V310.817H63.8305V298.552L67.1359 299.424V310.817H86.3501V304.486L89.6554 305.351V310.817H108.87V310.414L110.392 310.817H112.175V311.286Z" fill="black"/>
<path d="M36.3789 305.859L139.757 322.301L149.296 307.59L57.1352 287.159L36.3789 305.859Z" fill="#404040"/>
<path d="M326.271 286.443C326.271 286.443 302.925 274.861 298.546 273.352C289.775 270.32 276.319 257.645 269.461 254.105C265.459 252.036 267.678 243.512 279.279 243.805C290.881 244.098 303.751 253.695 304.324 252.732C305.892 250.129 279.084 238.072 274.79 237.038C270.495 236.003 257.079 239.524 248.49 237.461C239.901 235.398 243.525 227.603 249.876 224.181C258.289 219.626 274.965 219.093 281.108 218.494C287.25 217.895 307.492 229.835 307.492 229.835C307.492 229.835 281.023 222.268 277.685 220.726C274.347 219.184 259.141 220.348 249.212 217.837C239.283 215.325 244.605 204.889 260.664 203.483C270.101 202.571 279.6 202.489 289.052 203.236C293.679 203.483 322.783 218.975 322.783 218.975C322.783 218.975 317.369 218.325 315.151 217.83C312.932 217.336 290.269 205.923 287.172 204.641C275.388 199.755 266.708 192.597 269.819 187.268C272.083 183.364 287.452 186.585 295.13 190.047C305.345 194.654 334.729 212.306 334.729 212.306L295.592 191.55C295.592 191.55 297.394 187.835 302.983 188.375C322.952 190.327 339.362 202.858 343.181 205.233C354.724 212.391 387.043 244.859 387.043 244.859L366.833 275.883L326.271 286.443Z" fill="#D3766A"/>
<path d="M335.094 209.768C326.056 204.407 314.467 197.282 296.431 190.561C296.372 190.561 296.392 190.431 296.431 190.444C308.748 193.183 325.568 201.102 335.25 209.528C335.595 209.781 335.465 209.977 335.094 209.768Z" fill="#263238"/>
<path d="M321.521 218.884C313.927 215.299 305.059 210.341 296.073 206.964C291.662 205.305 289.814 205.058 283.528 203.002C283.463 203.002 283.496 202.845 283.567 202.858C289.163 203.717 290.041 203.464 296.119 205.116C304.024 207.263 317.441 215.325 321.742 218.585C322.08 218.839 321.924 219.073 321.521 218.884Z" fill="#263238"/>
<path d="M309.106 229.074C301.051 226.679 291.056 221.962 282.786 220.153C280.717 219.698 272.538 219.379 267.945 219.821C267.697 219.821 267.372 219.607 267.945 219.444C271.784 218.351 280.698 218.234 283.157 218.67C291.226 220.108 304.538 226.178 309.282 228.742C309.652 228.944 309.535 229.197 309.106 229.074Z" fill="#263238"/>
<path d="M469.964 325.386L387.043 244.859L334.892 247.136L326.271 286.443L349.844 325.386H469.964Z" fill="#D3766A"/>
<path d="M349.844 325.385L335.777 302.15L408.183 265.387L469.964 325.385H349.844Z" fill="#404040"/>
<path opacity="0.1" d="M349.844 325.385L335.777 302.15L408.183 265.387L469.964 325.385H349.844Z" fill="black"/>
<path opacity="0.1" d="M411.989 269.083H400.928L407.434 265.778H408.619L411.325 268.381L411.989 269.083ZM431.769 288.297H362.948V288.356L356.552 291.609H435.172L433.806 290.308L431.769 288.297ZM454.959 310.817H341.021L343.025 314.122H458.362L456.325 312.17L454.959 310.817ZM454.959 310.817L453.007 308.937V325.392H456.312V312.144L454.959 310.817ZM431.769 288.297L430.468 287.061V325.392H433.773V290.256L431.769 288.297ZM408.619 265.778L408.215 265.387L407.968 265.472V325.372H411.28V268.407L408.619 265.778ZM385.5 276.917V325.392H388.806V275.232L385.5 276.917ZM363.072 288.297H362.961V325.385H366.267V286.671L363.072 288.297ZM340.429 299.788V309.834L341.021 310.817L343.025 314.122L343.734 315.3V298.109L340.429 299.788Z" fill="black"/>
<path d="M330.213 300.088L342.765 318.553L430.611 282.871L406.81 261.575L330.213 300.088Z" fill="#404040"/>
</g>
<defs>
<clipPath id="clip0_1115_1352">
<rect width="488" height="325.333" fill="white"/>
</clipPath>
</defs>
</svg>
