<svg width="401" height="401" viewBox="0 0 401 401" fill="none" xmlns="http://www.w3.org/2000/svg">
<circle cx="200.5" cy="200.5" r="200.5" fill="#439BBE"/>
<path d="M153.5 251.5C112.3 269.9 100 310.833 99 329C181 355.4 269.167 340 303 329C300.5 282 272.5 268 248 251.5C228.4 238.3 226.833 212.667 228.5 201.5C234.1 195.9 241.5 177.5 244.5 169C252.9 177.8 259.333 166.333 261.5 159.5C267.9 144.3 260.5 140.167 256 140C272.8 100.8 255.5 84 244.5 81C238.5 86.5 225.044 82.6226 226 83C221.2 81.8 213.333 68.1667 210 61.5C209.6 66.7 214.5 75 217 78.5C169.5 29 165 84.5 164 84.5001C132.8 75.3001 138.667 117.667 145.5 140C142.5 140 133.6 141.5 140 159.5C146.4 177.5 154 173.333 157 169C159.8 183.4 169.5 196.667 174 201.5C175 230 165.5 245 153.5 251.5Z" fill="#DB8F5B"/>
<path d="M227.5 202C207.542 226.502 184 213 175 203.5C175 204.5 175 206 175 207C189.21 238.856 217.106 232.574 229.5 226C227.5 220.5 226.5 208 227.5 202Z" fill="#D46345" stroke="#D46247" stroke-linejoin="round"/>
<path d="M199 125C178.2 136.2 161 135.333 155.5 132V128.5C169.5 132.1 188.833 123.333 197 119.5C203.833 114 223.2 106 232 108C243 110.5 246 130.5 243.5 126C241 121.5 236.988 114.053 230 112.5C225.5 111.5 225 111 199 125Z" fill="#D46247" stroke="#D46247" stroke-linejoin="round"/>
<path d="M260.5 159C257.868 166.387 252.987 171.378 248.367 169.731C243.746 168.085 244.368 162.887 247 155.5C249.632 148.113 253.278 141.335 257.899 142.981C262.519 144.628 263.132 151.613 260.5 159Z" fill="#D46247"/>
<path d="M140.766 159.337C143.398 166.724 149.277 171.378 153.898 169.731C158.518 168.085 155.632 160.887 153 153.5C150.368 146.113 148.986 141.335 144.366 142.981C139.745 144.628 138.133 151.95 140.766 159.337Z" fill="#D46247"/>
<path d="M154.599 158.489L155.62 128.009C169.099 132.006 186.765 124.011 193.914 119.514C188.603 125.91 170.597 132.839 162.257 135.504C168.895 136.503 180.128 132.506 184.212 130.507C188.297 128.508 213.316 112.019 224.549 108.022C233.535 104.824 242.93 115.017 244.461 123.012V154.492C244.461 161.987 247.525 157.989 247.525 157.49C283.266 94.0306 248.187 77.7712 244.972 79.5399C240.5 82 233.5 82 230.5 81C226.237 79.5791 212 67.5 209.5 60C209.5 66 213.997 73.0441 216.89 77.0415C210.763 75.5425 200.041 57.5541 185.234 56.0551C173.388 54.8558 164.981 73.5438 162.258 83.0376C116.817 74.0435 146.94 144.498 151.535 154.492C151.535 154.492 154.088 159.155 154.599 158.489Z" fill="black" stroke="black" stroke-linejoin="round"/>
<path d="M213 211.5C205.4 217.5 193.167 214 188 211.5C191.6 219.5 198.5 222.833 201.5 223.5C206.3 223.1 211.167 215.333 213 211.5Z" fill="black" stroke="black" stroke-linejoin="round"/>
<path d="M201 178.5V152.5C203 156.333 207.5 164.8 209.5 168C211.5 171.2 210.333 173 209.5 173.5L201 178.5Z" fill="#D46247" stroke="#D46247" stroke-linejoin="round"/>
<path d="M202.102 185.118C202.66 186.153 206.845 186.153 207.403 185.894C211.029 184.859 223.025 185.894 224.42 186.671C225.536 187.292 226.559 188.482 226.931 189C227.396 186.326 225.387 182.238 224.419 182.314C219.043 182.737 209.457 181 206.388 181C203.319 181 201.544 184.083 202.102 185.118Z" fill="black" stroke="black" stroke-linejoin="round"/>
<path d="M199.898 185.118C199.34 186.153 195.155 186.153 194.597 185.894C190.971 184.859 178.975 185.894 177.58 186.671C176.464 187.292 175.441 188.482 175.069 189C174.604 186.326 176.613 182.238 177.581 182.314C182.957 182.737 192.543 181 195.612 181C198.681 181 200.456 184.083 199.898 185.118Z" fill="black" stroke="black" stroke-linejoin="round"/>
<path d="M241.052 244C206.288 268.615 173.513 254.256 161.471 244C159.796 246.546 153.792 250.72 151 252.488C195.817 286.015 236.34 266.458 251 252.488C247.649 251.639 242.972 246.476 241.052 244Z" fill="white" stroke="white" stroke-linejoin="round"/>
<path d="M97 329.17C100.662 282.267 135.145 258.18 151.929 252C196.686 285.674 235.678 266.031 249.58 252C293.116 270.04 304 310.963 304 329.17C222.217 356.029 131.924 340.361 97 329.17Z" fill="#53504F" stroke="#53504F" stroke-linejoin="round"/>
</svg>
