<svg width="114" height="101" viewBox="0 0 114 101" fill="none" xmlns="http://www.w3.org/2000/svg">
<path d="M66.0053 39.7293C66.0053 35.3697 62.9178 32.9631 57.4949 32.9631H47.5199V47.0084H55.9313C62.423 46.9887 66.0053 44.3848 66.0053 39.7293ZM102.323 37.2043C100.443 31.1088 100.166 23.6324 100.383 17.8525C100.601 11.8359 95.8907 6.3125 89.5574 6.3125H24.4824C18.1292 6.3125 13.4386 11.8557 13.6563 17.8525C13.8542 23.6324 13.597 31.1088 11.7167 37.2043C9.81675 43.3195 6.63029 47.1859 1.3855 47.6791V53.3012C6.6105 53.7943 9.81675 57.6607 11.7167 63.776C13.597 69.8715 13.874 77.3479 13.6563 83.1277C13.4386 89.1443 18.149 94.6678 24.4824 94.6678H89.5376C95.8907 94.6678 100.581 89.1246 100.364 83.1277C100.166 77.3479 100.423 69.8715 102.303 63.776C104.203 57.6607 107.39 53.7943 112.615 53.3012V47.6791C107.409 47.1859 104.203 43.3195 102.323 37.2043ZM59.4147 73.9943H40.0386V26.9859H59.3157C67.8855 26.9859 73.5063 31.602 73.5063 38.7035C73.5063 43.6943 69.7261 48.1525 64.897 48.9219V49.1783C71.4678 49.8885 75.8813 54.4256 75.8813 60.6789C75.8813 68.9838 69.6865 73.9943 59.4147 73.9943ZM57.4355 52.5516H47.5199V68.0172H57.8709C64.6397 68.0172 68.222 65.3146 68.222 60.2252C68.222 55.1555 64.5407 52.5516 57.4355 52.5516Z" fill="#333333"/>
</svg>
