<svg width="50" height="50" viewBox="0 0 50 50" fill="none" xmlns="http://www.w3.org/2000/svg">
<rect width="50" height="50" fill="#E91E3C"/>
<path d="M40.912 14.6V28.072C40.912 31.1013 40.1547 33.3947 38.64 34.952C37.1467 36.488 35.0027 37.256 32.208 37.256C30.5653 37.256 29.1147 36.968 27.856 36.392C26.6187 35.7947 25.6693 34.984 25.008 33.96C24.3253 34.984 23.376 35.7947 22.16 36.392C20.944 36.968 19.504 37.256 17.84 37.256C15.0453 37.256 12.9013 36.488 11.408 34.952C9.91467 33.3947 9.168 31.1013 9.168 28.072V14.6H12.368V27.976C12.368 32.264 14.192 34.408 17.84 34.408C19.6107 34.408 20.9867 33.8853 21.968 32.84C22.9493 31.7947 23.44 30.1733 23.44 27.976V14.6H26.64V27.976C26.64 30.1733 27.12 31.7947 28.08 32.84C29.0613 33.8853 30.4373 34.408 32.208 34.408C35.8773 34.408 37.712 32.264 37.712 27.976V14.6H40.912Z" fill="white"/>
</svg>
