<svg width="20" height="20" viewBox="0 0 20 20" fill="none" xmlns="http://www.w3.org/2000/svg">
<path d="M5.27411 2.5V12.5" stroke="#837E9F" stroke-width="2" stroke-linecap="round" stroke-linejoin="round"/>
<path d="M14.6604 7.5C15.9564 7.5 17.007 6.38071 17.007 5C17.007 3.61929 15.9564 2.5 14.6604 2.5C13.3644 2.5 12.3138 3.61929 12.3138 5C12.3138 6.38071 13.3644 7.5 14.6604 7.5Z" stroke="#837E9F" stroke-width="2" stroke-linecap="round" stroke-linejoin="round"/>
<path d="M5.27412 17.5C6.57009 17.5 7.62068 16.3807 7.62068 15C7.62068 13.6193 6.57009 12.5 5.27412 12.5C3.97814 12.5 2.92755 13.6193 2.92755 15C2.92755 16.3807 3.97814 17.5 5.27412 17.5Z" stroke="#837E9F" stroke-width="2" stroke-linecap="round" stroke-linejoin="round"/>
<path d="M14.6604 7.5C14.6604 9.48912 13.9187 11.3968 12.5985 12.8033C11.2783 14.2098 9.48771 15 7.62067 15" stroke="#837E9F" stroke-width="2" stroke-linecap="round" stroke-linejoin="round"/>
</svg>
