<svg width="61" height="70" viewBox="0 0 61 70" fill="none" xmlns="http://www.w3.org/2000/svg">
<path d="M54.4643 4.35712H6.53571C2.92746 4.35712 0 7.28457 0 10.8928V58.8214C0 62.4297 2.92746 65.3571 6.53571 65.3571H54.4643C58.0725 65.3571 61 62.4297 61 58.8214V10.8928C61 7.28457 58.0725 4.35712 54.4643 4.35712ZM37.7574 56.602C36.6136 56.8062 36.1915 56.0982 36.1915 55.5127C36.1915 54.7774 36.2188 51.0194 36.2188 47.983C36.2188 45.8589 35.5107 44.5109 34.6801 43.8029C39.7181 43.2446 45.0284 42.5502 45.0284 33.8495C45.0284 31.3714 44.1433 30.1323 42.7 28.5393C42.9315 27.9538 43.7076 25.5437 42.4685 22.412C40.5759 21.8265 36.246 24.8493 36.246 24.8493C34.4487 24.3455 32.5016 24.0868 30.5817 24.0868C28.6618 24.0868 26.7147 24.3455 24.9174 24.8493C24.9174 24.8493 20.5875 21.8265 18.6949 22.412C17.4558 25.5301 18.2183 27.9402 18.4634 28.5393C17.0201 30.1323 16.3393 31.3714 16.3393 33.8495C16.3393 42.5093 21.4181 43.2446 26.456 43.8029C25.8025 44.3884 25.217 45.396 25.0127 46.8393C23.7192 47.4248 20.4105 48.4323 18.4362 44.9466C17.1971 42.7953 14.9641 42.6183 14.9641 42.6183C12.7583 42.591 14.8143 44.0071 14.8143 44.0071C16.2848 44.6879 17.3196 47.3022 17.3196 47.3022C18.6404 51.3462 24.9583 49.9846 24.9583 49.9846C24.9583 51.8772 24.9855 54.9544 24.9855 55.5127C24.9855 56.0982 24.577 56.8062 23.4196 56.602C14.433 53.5928 8.14241 45.0419 8.14241 35.0477C8.14241 22.5482 17.7009 13.0578 30.2004 13.0578C42.7 13.0578 52.8304 22.5482 52.8304 35.0477C52.844 45.0419 46.744 53.6064 37.7574 56.602ZM24.4 48.2826C24.1413 48.337 23.8962 48.2281 23.869 48.0511C23.8417 47.8468 24.0188 47.6698 24.2775 47.6154C24.5362 47.5881 24.7812 47.6971 24.8085 47.8741C24.8493 48.0511 24.6723 48.2281 24.4 48.2826ZM23.1065 48.16C23.1065 48.337 22.9022 48.4868 22.6299 48.4868C22.3304 48.514 22.1261 48.3643 22.1261 48.16C22.1261 47.983 22.3304 47.8332 22.6027 47.8332C22.8614 47.806 23.1065 47.9558 23.1065 48.16ZM21.2411 48.0102C21.1866 48.1873 20.9143 48.2689 20.6828 48.1873C20.4241 48.1328 20.2471 47.9285 20.3016 47.7515C20.356 47.5745 20.6283 47.4928 20.8598 47.5473C21.1321 47.629 21.3092 47.8332 21.2411 48.0102ZM19.5663 47.275C19.4438 47.4248 19.185 47.3975 18.9808 47.1933C18.7766 47.0163 18.7221 46.7576 18.8583 46.635C18.9808 46.4852 19.2395 46.5125 19.4438 46.7167C19.6208 46.8937 19.6888 47.166 19.5663 47.275ZM18.3272 46.0359C18.2047 46.1176 17.9732 46.0359 17.8234 45.8317C17.6737 45.6274 17.6737 45.396 17.8234 45.3006C17.9732 45.1781 18.2047 45.2734 18.3272 45.4777C18.477 45.6819 18.477 45.927 18.3272 46.0359ZM17.4422 44.7152C17.3196 44.8377 17.1154 44.7696 16.9656 44.6335C16.8158 44.4564 16.7886 44.2522 16.9112 44.1569C17.0337 44.0343 17.2379 44.1024 17.3877 44.2386C17.5375 44.4156 17.5647 44.6198 17.4422 44.7152ZM16.5299 43.7076C16.4754 43.8301 16.2984 43.8573 16.1487 43.762C15.9717 43.6803 15.89 43.5306 15.9444 43.408C15.9989 43.3263 16.1487 43.2855 16.3257 43.3535C16.5027 43.4489 16.5844 43.5986 16.5299 43.7076Z" fill="url(#paint0_linear_614_125)"/>
<defs>
<linearGradient id="paint0_linear_614_125" x1="30.5" y1="4.35712" x2="30.5" y2="65.3571" gradientUnits="userSpaceOnUse">
<stop stop-color="white"/>
<stop offset="1" stop-color="#EAEAEA"/>
</linearGradient>
</defs>
</svg>
