<svg width="61" height="70" viewBox="0 0 61 70" fill="none" xmlns="http://www.w3.org/2000/svg">
<g clip-path="url(#clip0_614_130)">
<path d="M30.5136 19.1987C21.8538 19.1987 14.8687 26.1838 14.8687 34.8436C14.8687 43.5034 21.8538 50.4884 30.5136 50.4884C39.1734 50.4884 46.1584 43.5034 46.1584 34.8436C46.1584 26.1838 39.1734 19.1987 30.5136 19.1987ZM30.5136 45.0148C24.9174 45.0148 20.3424 40.4534 20.3424 34.8436C20.3424 29.2338 24.9038 24.6724 30.5136 24.6724C36.1234 24.6724 40.6848 29.2338 40.6848 34.8436C40.6848 40.4534 36.1098 45.0148 30.5136 45.0148ZM50.4475 18.5588C50.4475 20.5876 48.8136 22.2079 46.7984 22.2079C44.7696 22.2079 43.1493 20.5739 43.1493 18.5588C43.1493 16.5436 44.7832 14.9097 46.7984 14.9097C48.8136 14.9097 50.4475 16.5436 50.4475 18.5588ZM60.8093 22.2623C60.5779 17.3742 59.4613 13.0443 55.8803 9.47684C52.3129 5.90943 47.983 4.79292 43.0948 4.54783C38.0569 4.26189 22.9567 4.26189 17.9187 4.54783C13.0442 4.7793 8.71424 5.89582 5.13322 9.46323C1.55219 13.0306 0.449288 17.3605 0.204199 22.2487C-0.0817383 27.2867 -0.0817383 42.3869 0.204199 47.4248C0.435672 52.313 1.55219 56.6429 5.13322 60.2103C8.71424 63.7777 13.0305 64.8942 17.9187 65.1393C22.9567 65.4253 38.0569 65.4253 43.0948 65.1393C47.983 64.9079 52.3129 63.7913 55.8803 60.2103C59.4477 56.6429 60.5642 52.313 60.8093 47.4248C61.0953 42.3869 61.0953 27.3003 60.8093 22.2623ZM54.3009 52.8304C53.2388 55.4992 51.1828 57.5552 48.5004 58.6309C44.4837 60.2239 34.9524 59.8563 30.5136 59.8563C26.0747 59.8563 16.5299 60.2103 12.5267 58.6309C9.85799 57.5688 7.80197 55.5128 6.7263 52.8304C5.13322 48.8137 5.50085 39.2824 5.50085 34.8436C5.50085 30.4047 5.14683 20.8599 6.7263 16.8568C7.78835 14.188 9.84438 12.132 12.5267 11.0563C16.5435 9.46323 26.0747 9.83086 30.5136 9.83086C34.9524 9.83086 44.4973 9.47684 48.5004 11.0563C51.1692 12.1184 53.2252 14.1744 54.3009 16.8568C55.8939 20.8735 55.5263 30.4047 55.5263 34.8436C55.5263 39.2824 55.8939 48.8273 54.3009 52.8304Z" fill="url(#paint0_linear_614_130)"/>
</g>
<defs>
<linearGradient id="paint0_linear_614_130" x1="30.5068" y1="4.33337" x2="30.5068" y2="65.3538" gradientUnits="userSpaceOnUse">
<stop stop-color="white"/>
<stop offset="1" stop-color="#EAEAEA"/>
</linearGradient>
<clipPath id="clip0_614_130">
<rect width="61" height="69.7143" fill="white"/>
</clipPath>
</defs>
</svg>
