<svg width="114" height="129" viewBox="0 0 114 129" fill="none" xmlns="http://www.w3.org/2000/svg">
<path d="M0 8.0625V120.938H114V8.0625H0ZM62.0384 96.0949C62.0384 107.08 55.5241 112.094 46.0326 112.094C37.4571 112.094 32.4951 107.71 29.9504 102.394L38.6786 97.1783C40.358 100.126 41.8848 102.621 45.5746 102.621C49.0862 102.621 51.3254 101.26 51.3254 95.9438V59.8893H62.0384V96.0949ZM87.383 112.094C77.4335 112.094 70.9955 107.408 67.8656 101.26L76.5938 96.2713C78.8839 99.975 81.8866 102.721 87.154 102.721C91.5817 102.721 94.4317 100.529 94.4317 97.4807C94.4317 93.8525 91.5308 92.5676 86.6196 90.426L83.9478 89.2922C76.2121 86.042 71.0973 81.9352 71.0973 73.2932C71.0973 65.3315 77.2299 59.2846 86.7723 59.2846C93.592 59.2846 98.4777 61.6277 101.989 67.7754L93.6429 73.0664C91.8107 69.8162 89.8259 68.5313 86.7469 68.5313C83.617 68.5313 81.6321 70.4965 81.6321 73.0664C81.6321 76.241 83.617 77.526 88.2228 79.5164L90.8947 80.6502C100.004 84.5051 105.119 88.4607 105.119 97.3295C105.119 106.853 97.5362 112.094 87.383 112.094Z" fill="#333333"/>
</svg>
