<svg width="61" height="62" viewBox="0 0 61 62" fill="none" xmlns="http://www.w3.org/2000/svg">
<path d="M56.6429 0.357117H4.34353C1.9471 0.357117 0 2.33145 0 4.75511V56.9591C0 59.3828 1.9471 61.3571 4.34353 61.3571H56.6429C59.0393 61.3571 61 59.3828 61 56.9591V4.75511C61 2.33145 59.0393 0.357117 56.6429 0.357117ZM18.4362 52.6428H9.39509V23.5317H18.4498V52.6428H18.4362ZM13.9156 19.5558C11.0154 19.5558 8.67344 17.2002 8.67344 14.3136C8.67344 11.427 11.0154 9.0714 13.9156 9.0714C16.8022 9.0714 19.1578 11.427 19.1578 14.3136C19.1578 17.2138 16.8158 19.5558 13.9156 19.5558V19.5558ZM52.3266 52.6428H43.2855V38.4821C43.2855 35.1053 43.2174 30.7618 38.5879 30.7618C33.8768 30.7618 33.1551 34.4381 33.1551 38.237V52.6428H24.1141V23.5317H32.7875V27.5076H32.91C34.1219 25.2201 37.0766 22.81 41.4746 22.81C50.6246 22.81 52.3266 28.8419 52.3266 36.6848V52.6428V52.6428Z" fill="url(#paint0_linear_614_120)"/>
<defs>
<linearGradient id="paint0_linear_614_120" x1="30.5" y1="0.357117" x2="30.5" y2="61.3571" gradientUnits="userSpaceOnUse">
<stop stop-color="white"/>
<stop offset="1" stop-color="#EAEAEA"/>
</linearGradient>
</defs>
</svg>
