<svg width="142" height="71" viewBox="0 0 142 71" fill="none" xmlns="http://www.w3.org/2000/svg">
<rect width="142" height="71" fill="#E91E3C"/>
<path d="M36.768 30.04V39.416C36.768 41.912 36.1493 43.832 34.912 45.176C33.6747 46.52 31.8827 47.192 29.536 47.192C26.7627 47.192 24.8427 46.1787 23.776 44.152C23.2213 45.176 22.464 45.944 21.504 46.456C20.5653 46.9467 19.392 47.192 17.984 47.192C15.616 47.192 13.8133 46.52 12.576 45.176C11.36 43.832 10.752 41.912 10.752 39.416V30.04H13.824V39.128C13.824 40.9413 14.1547 42.2853 14.816 43.16C15.4773 44.0133 16.5333 44.44 17.984 44.44C19.4347 44.44 20.5013 44.0027 21.184 43.128C21.888 42.2533 22.24 40.92 22.24 39.128V30.04H25.312V39.128C25.312 40.92 25.6533 42.2533 26.336 43.128C27.04 44.0027 28.1173 44.44 29.568 44.44C30.9973 44.44 32.0427 44.0133 32.704 43.16C33.3653 42.2853 33.696 40.9413 33.696 39.128V30.04H36.768ZM50.0913 44.504C52.1179 44.504 53.7499 43.8213 54.9873 42.456L56.6513 44.44C55.9046 45.336 54.9553 46.0187 53.8033 46.488C52.6726 46.9573 51.4033 47.192 49.9953 47.192C48.2033 47.192 46.6139 46.8293 45.2273 46.104C43.8406 45.3573 42.7633 44.3227 41.9953 43C41.2486 41.6773 40.8753 40.184 40.8753 38.52C40.8753 36.8773 41.2379 35.3947 41.9633 34.072C42.7099 32.7493 43.7233 31.7253 45.0033 31C46.3046 30.2533 47.7659 29.88 49.3873 29.88C50.9233 29.88 52.3206 30.232 53.5793 30.936C54.8379 31.6187 55.8406 32.5893 56.5873 33.848C57.3339 35.1067 57.7179 36.5573 57.7393 38.2L44.2673 40.824C44.6939 41.9973 45.4086 42.904 46.4113 43.544C47.4353 44.184 48.6619 44.504 50.0913 44.504ZM49.3873 32.472C48.3206 32.472 47.3606 32.7173 46.5073 33.208C45.6753 33.6987 45.0246 34.392 44.5553 35.288C44.0859 36.1627 43.8513 37.1867 43.8513 38.36V38.68L54.6993 36.632C54.4219 35.3947 53.8033 34.392 52.8433 33.624C51.8833 32.856 50.7313 32.472 49.3873 32.472ZM71.093 29.88C73.2477 29.88 74.9543 30.5093 76.213 31.768C77.493 33.0053 78.133 34.8293 78.133 37.24V47H75.061V37.592C75.061 35.9493 74.6663 34.712 73.877 33.88C73.0877 33.048 71.957 32.632 70.485 32.632C68.821 32.632 67.509 33.1227 66.549 34.104C65.589 35.064 65.109 36.4507 65.109 38.264V47H62.037V30.04H64.981V32.6C65.5997 31.7253 66.4317 31.0533 67.477 30.584C68.5437 30.1147 69.749 29.88 71.093 29.88ZM99.912 23.256V47H96.968V44.312C96.2853 45.2507 95.4213 45.9653 94.376 46.456C93.3307 46.9467 92.1787 47.192 90.92 47.192C89.2773 47.192 87.8053 46.8293 86.504 46.104C85.2027 45.3787 84.1787 44.3653 83.432 43.064C82.7067 41.7413 82.344 40.2267 82.344 38.52C82.344 36.8133 82.7067 35.3093 83.432 34.008C84.1787 32.7067 85.2027 31.6933 86.504 30.968C87.8053 30.2427 89.2773 29.88 90.92 29.88C92.136 29.88 93.256 30.1147 94.28 30.584C95.304 31.032 96.1573 31.704 96.84 32.6V23.256H99.912ZM91.176 44.504C92.2427 44.504 93.2133 44.2587 94.088 43.768C94.9627 43.256 95.6453 42.552 96.136 41.656C96.6267 40.7387 96.872 39.6933 96.872 38.52C96.872 37.3467 96.6267 36.312 96.136 35.416C95.6453 34.4987 94.9627 33.7947 94.088 33.304C93.2133 32.8133 92.2427 32.568 91.176 32.568C90.088 32.568 89.1067 32.8133 88.232 33.304C87.3787 33.7947 86.696 34.4987 86.184 35.416C85.6933 36.312 85.448 37.3467 85.448 38.52C85.448 39.6933 85.6933 40.7387 86.184 41.656C86.696 42.552 87.3787 43.256 88.232 43.768C89.1067 44.2587 90.088 44.504 91.176 44.504ZM113.373 44.504C115.399 44.504 117.031 43.8213 118.269 42.456L119.933 44.44C119.186 45.336 118.237 46.0187 117.085 46.488C115.954 46.9573 114.685 47.192 113.277 47.192C111.485 47.192 109.895 46.8293 108.509 46.104C107.122 45.3573 106.045 44.3227 105.277 43C104.53 41.6773 104.157 40.184 104.157 38.52C104.157 36.8773 104.519 35.3947 105.245 34.072C105.991 32.7493 107.005 31.7253 108.285 31C109.586 30.2533 111.047 29.88 112.669 29.88C114.205 29.88 115.602 30.232 116.861 30.936C118.119 31.6187 119.122 32.5893 119.869 33.848C120.615 35.1067 120.999 36.5573 121.021 38.2L107.549 40.824C107.975 41.9973 108.69 42.904 109.693 43.544C110.717 44.184 111.943 44.504 113.373 44.504ZM112.669 32.472C111.602 32.472 110.642 32.7173 109.789 33.208C108.957 33.6987 108.306 34.392 107.837 35.288C107.367 36.1627 107.133 37.1867 107.133 38.36V38.68L117.981 36.632C117.703 35.3947 117.085 34.392 116.125 33.624C115.165 32.856 114.013 32.472 112.669 32.472ZM130.47 47.192C128.828 47.192 127.558 46.744 126.662 45.848C125.766 44.9307 125.318 43.6507 125.318 42.008V23.256H128.39V41.752C128.39 42.6693 128.604 43.3733 129.03 43.864C129.478 44.3547 130.14 44.6 131.014 44.6C131.548 44.6 132.049 44.4933 132.518 44.28L132.678 46.808C131.974 47.064 131.238 47.192 130.47 47.192Z" fill="white"/>
</svg>
