<svg width="227" height="74" viewBox="0 0 227 74" fill="none" xmlns="http://www.w3.org/2000/svg">
<path d="M2.048 24.216H12.928L22.976 53.784L21.504 53.144L30.272 31.32L34.56 44.056L20.992 73.176L2.048 24.216ZM25.664 24.216H34.88L46.464 52.824L44.8 52.568L53.44 24.216H63.424L45.248 73.048L25.664 24.216ZM78.118 71.768C74.7047 71.768 71.8033 71.128 69.414 69.848C67.0673 68.568 65.2753 66.7973 64.038 64.536C62.8007 62.2747 62.182 59.672 62.182 56.728C62.182 53.912 62.9073 51.3733 64.358 49.112C65.8087 46.8507 67.75 45.0587 70.182 43.736C72.614 42.3707 75.3233 41.688 78.31 41.688C82.3207 41.688 85.606 42.8613 88.166 45.208C90.7687 47.512 92.454 50.8613 93.222 55.256L71.462 62.168L69.478 57.304L85.222 51.992L83.366 52.824C83.0247 51.7147 82.406 50.7547 81.51 49.944C80.6567 49.0907 79.3553 48.664 77.606 48.664C76.2833 48.664 75.11 48.984 74.086 49.624C73.1047 50.2213 72.3367 51.096 71.782 52.248C71.27 53.3573 71.014 54.68 71.014 56.216C71.014 57.9653 71.334 59.4373 71.974 60.632C72.614 61.784 73.4887 62.6587 74.598 63.256C75.7073 63.8533 76.9447 64.152 78.31 64.152C79.2913 64.152 80.23 63.9813 81.126 63.64C82.0647 63.2987 82.982 62.8507 83.878 62.296L87.846 68.952C86.3527 69.8053 84.7313 70.488 82.982 71C81.2753 71.512 79.654 71.768 78.118 71.768ZM107.861 43.032L108.565 48.024L108.437 47.576C109.418 45.8267 110.805 44.4187 112.597 43.352C114.389 42.2427 116.586 41.688 119.189 41.688C121.834 41.688 124.032 42.4773 125.781 44.056C127.573 45.592 128.49 47.5973 128.533 50.072V71H119.573V53.4C119.53 52.1627 119.189 51.1813 118.549 50.456C117.952 49.688 116.928 49.304 115.477 49.304C114.112 49.304 112.917 49.752 111.893 50.648C110.869 51.544 110.08 52.76 109.525 54.296C108.97 55.832 108.693 57.6027 108.693 59.608V71H99.733V43.032H107.861ZM149.125 71.768C146.522 71.768 144.197 71.1707 142.149 69.976C140.101 68.7387 138.48 66.968 137.285 64.664C136.133 62.36 135.557 59.6293 135.557 56.472C135.557 53.3147 136.197 50.6267 137.477 48.408C138.757 46.1893 140.506 44.504 142.725 43.352C144.944 42.2 147.461 41.624 150.277 41.624C152.069 41.624 153.776 41.9013 155.397 42.456C157.061 43.0107 158.448 43.864 159.557 45.016V47.832V20.504H168.453V71H159.493V65.56L160.197 67.48C158.746 68.6747 157.125 69.6987 155.333 70.552C153.541 71.3627 151.472 71.768 149.125 71.768ZM152.069 64.216C153.264 64.216 154.309 64.0667 155.205 63.768C156.144 63.4267 156.954 62.9573 157.637 62.36C158.362 61.72 158.981 60.9307 159.493 59.992V53.144C159.152 52.2053 158.618 51.416 157.893 50.776C157.21 50.0933 156.357 49.5813 155.333 49.24C154.352 48.856 153.264 48.664 152.069 48.664C150.746 48.664 149.509 49.0053 148.357 49.688C147.248 50.328 146.352 51.224 145.669 52.376C144.986 53.528 144.645 54.8507 144.645 56.344C144.645 57.8373 144.986 59.1813 145.669 60.376C146.352 61.5707 147.248 62.5093 148.357 63.192C149.509 63.8747 150.746 64.216 152.069 64.216ZM191.431 71.768C188.017 71.768 185.116 71.128 182.727 69.848C180.38 68.568 178.588 66.7973 177.351 64.536C176.113 62.2747 175.495 59.672 175.495 56.728C175.495 53.912 176.22 51.3733 177.671 49.112C179.121 46.8507 181.063 45.0587 183.495 43.736C185.927 42.3707 188.636 41.688 191.623 41.688C195.633 41.688 198.919 42.8613 201.479 45.208C204.081 47.512 205.766 50.8613 206.535 55.256L184.775 62.168L182.791 57.304L198.535 51.992L196.679 52.824C196.337 51.7147 195.719 50.7547 194.823 49.944C193.969 49.0907 192.668 48.664 190.919 48.664C189.596 48.664 188.423 48.984 187.399 49.624C186.417 50.2213 185.649 51.096 185.095 52.248C184.583 53.3573 184.327 54.68 184.327 56.216C184.327 57.9653 184.647 59.4373 185.287 60.632C185.927 61.784 186.801 62.6587 187.911 63.256C189.02 63.8533 190.257 64.152 191.623 64.152C192.604 64.152 193.543 63.9813 194.439 63.64C195.377 63.2987 196.295 62.8507 197.191 62.296L201.159 68.952C199.665 69.8053 198.044 70.488 196.295 71C194.588 71.512 192.967 71.768 191.431 71.768ZM213.046 20.504H222.006V71H213.046V20.504Z" fill="#F5F5F7"/>
<rect width="72" height="16" fill="#FF2D2D"/>
</svg>
