<svg width="114" height="113" viewBox="0 0 114 113" fill="none" xmlns="http://www.w3.org/2000/svg">
<path d="M93.1148 39.1086C91.9125 38.7113 90.7102 38.3361 89.5078 37.983C89.7082 37.1664 89.8863 36.3498 90.0645 35.5332C92.8031 22.3793 90.9996 11.8076 84.9211 8.32049C79.0652 4.98788 69.5133 8.45292 59.85 16.7955C58.8926 17.6121 57.9574 18.4728 57.0668 19.3336C56.4656 18.7598 55.8422 18.1859 55.2188 17.6342C45.0879 8.71776 34.9348 4.96581 28.8563 8.47499C23.0227 11.8297 21.2859 21.7834 23.7352 34.231C23.9801 35.467 24.2473 36.6808 24.559 37.9168C23.134 38.314 21.7312 38.7554 20.4176 39.2189C8.52773 43.3019 0 49.7465 0 56.4117C0 63.2976 9.08438 70.2056 21.4418 74.399C22.4438 74.7301 23.4457 75.0611 24.4699 75.348C24.1359 76.6722 23.8465 77.9744 23.5793 79.3207C21.2414 91.5697 23.0672 101.281 28.9008 104.613C34.9125 108.056 45.0211 104.525 54.8625 95.9838C55.6418 95.2996 56.4211 94.5933 57.2004 93.8429C58.1801 94.792 59.2043 95.6968 60.2285 96.5797C69.7582 104.702 79.1766 107.99 84.9879 104.657C90.9996 101.214 92.959 90.7752 90.4207 78.0627C90.2203 77.0916 89.9977 76.0984 89.7527 75.0832C90.4652 74.8846 91.1555 74.6638 91.8457 74.4431C104.693 70.2277 114 63.408 114 56.4117C114 49.7244 105.227 43.2357 93.1148 39.1086ZM62.9895 20.3709C71.2723 13.2201 78.9984 10.4172 82.5164 12.4256C86.2793 14.5664 87.7266 23.218 85.3664 34.5842C85.2105 35.3346 85.0547 36.0629 84.8543 36.7912C79.9113 35.6877 74.9016 34.8931 69.8695 34.4517C66.975 30.3467 63.8133 26.4181 60.3844 22.7324C61.2527 21.9158 62.0988 21.1433 62.9895 20.3709ZM37.2281 67.8662C38.3637 69.7863 39.5215 71.7064 40.7461 73.5824C37.2727 73.2072 33.8215 72.6554 30.4148 71.9271C31.3945 68.749 32.6191 65.4605 34.0441 62.1058C35.0684 64.048 36.1148 65.9681 37.2281 67.8662ZM30.4816 41.3156C33.6879 40.6094 37.0945 40.0355 40.6348 39.5941C39.4547 41.426 38.2969 43.3019 37.2059 45.2C36.1148 47.076 35.0461 48.9961 34.0441 50.9383C32.6414 47.6498 31.4613 44.4275 30.4816 41.3156ZM36.5824 56.522C38.052 53.4763 39.6551 50.4969 41.3473 47.5615C43.0395 44.6262 44.8652 41.7791 46.7801 38.9762C50.1199 38.7334 53.5266 38.601 57 38.601C60.4734 38.601 63.9023 38.7334 67.2199 38.9762C69.1125 41.757 70.916 44.6041 72.6305 47.5174C74.3449 50.4306 75.948 53.4101 77.4621 56.4338C75.9703 59.4795 74.3672 62.481 72.6527 65.4385C70.9605 68.3738 69.157 71.2209 67.2645 74.0459C63.9469 74.2887 60.4957 74.399 57 74.399C53.5043 74.399 50.1199 74.2887 46.8469 74.09C44.9098 71.2871 43.084 68.4179 41.3695 65.4826C39.6551 62.5472 38.0742 59.5678 36.5824 56.522ZM76.7941 67.822C77.9297 65.8799 78.9984 63.9156 80.0449 61.9293C81.4699 65.1295 82.7168 68.3738 83.8078 71.7064C80.3566 72.4789 76.8609 73.0748 73.343 73.472C74.5453 71.6181 75.6809 69.7201 76.7941 67.822ZM80.0004 50.9383C78.9539 48.9961 77.8852 47.0539 76.7719 45.1558C75.6809 43.2799 74.5453 41.426 73.3652 39.5941C76.95 40.0355 80.3789 40.6314 83.5852 41.3597C82.5609 44.6262 81.3586 47.8043 80.0004 50.9383ZM57.0445 26.1092C59.3824 28.6252 61.5867 31.2736 63.6352 34.0103C59.2266 33.8117 54.7957 33.8117 50.3871 34.0103C52.5691 31.1633 54.818 28.5148 57.0445 26.1092ZM31.2164 12.5801C34.957 10.4172 43.2621 13.507 52.0125 21.1875C52.5691 21.673 53.1258 22.2027 53.7047 22.7324C50.2535 26.4181 47.0695 30.3467 44.1527 34.4517C39.1207 34.8931 34.1332 35.6656 29.1902 36.7471C28.9008 35.6215 28.6559 34.4738 28.4109 33.3262C26.318 22.6441 27.6984 14.5885 31.2164 12.5801ZM25.7613 70.7574C24.8262 70.4926 23.9133 70.2056 23.0004 69.8967C18.2578 68.4179 12.8695 66.0785 8.97305 63.0107C6.72422 61.4658 5.21016 59.0822 4.78711 56.4117C4.78711 52.3728 11.823 47.2084 21.9762 43.6992C23.2453 43.2578 24.5367 42.8605 25.8281 42.4853C27.3422 47.2746 29.168 51.9756 31.2832 56.522C29.1457 61.1347 27.2977 65.9019 25.7613 70.7574ZM51.723 92.3863C48.0492 95.7189 43.7965 98.3674 39.1652 100.177C36.6937 101.347 33.8438 101.457 31.3055 100.464C27.7652 98.4336 26.2957 90.6428 28.2996 80.1594C28.5445 78.9234 28.8117 77.6875 29.1234 76.4736C34.1109 77.533 39.143 78.2613 44.2418 78.6365C47.1809 82.7636 50.4094 86.7142 53.8605 90.4221C53.148 91.1062 52.4355 91.7683 51.723 92.3863ZM57.1781 87.0232C54.907 84.5955 52.6359 81.9029 50.4316 79.0117C52.5691 79.1 54.7734 79.1441 57 79.1441C59.2934 79.1441 61.5422 79.1 63.7687 78.9896C61.7203 81.7925 59.516 84.4631 57.1781 87.0232ZM86.2793 93.6443C86.0789 96.3369 84.743 98.8529 82.6055 100.552C79.0652 102.583 71.5172 99.9343 63.368 93.0043C62.4328 92.2097 61.4977 91.349 60.5402 90.4662C63.9469 86.7363 67.0863 82.7857 69.9363 78.6365C75.0352 78.2172 80.1117 77.4447 85.1215 76.3191C85.3441 77.224 85.5445 78.1289 85.7227 79.0117C86.8137 83.7789 86.9918 88.7447 86.2793 93.6443ZM90.3316 69.9187C89.7082 70.1174 89.0848 70.316 88.4391 70.4926C86.8805 65.6812 84.9656 60.9803 82.7613 56.4117C84.8988 51.9094 86.7023 47.2746 88.2164 42.5295C89.3742 42.8605 90.4875 43.2136 91.5563 43.5668C101.932 47.098 109.213 52.3508 109.213 56.3676C109.213 60.6933 101.442 66.2771 90.3316 69.9187ZM57 66.6082C62.6332 66.6082 67.1977 62.0838 67.1977 56.5C67.1977 50.9162 62.6332 46.3918 57 46.3918C51.3668 46.3918 46.8023 50.9162 46.8023 56.5C46.8023 62.0838 51.3668 66.6082 57 66.6082Z" fill="#333333"/>
</svg>
