<svg width="113" height="91" viewBox="0 0 113 91" fill="none" xmlns="http://www.w3.org/2000/svg">
<path d="M53.2935 67.3471C53.2405 67.4538 53.1875 67.5391 53.2935 67.3471V67.3471ZM97.2805 51.8842C93.7294 51.8831 90.2255 52.704 87.0399 54.2837C85.9982 52.1686 84.9211 50.3202 84.7446 48.9338C84.5327 47.3165 84.3032 46.3567 84.5503 44.4372C84.7975 42.5176 85.9099 39.7983 85.8922 39.6028C85.8746 39.4073 85.645 38.4297 83.3674 38.412C81.0897 38.3942 79.1299 38.8563 78.9021 39.4606C78.4998 40.565 78.1869 41.7002 77.9663 42.8553C77.5602 44.9348 73.4128 52.3641 71.0645 56.2387C70.2876 54.728 69.6343 53.395 69.4931 52.3286C69.2812 50.7112 69.0517 49.7514 69.2989 47.8319C69.5461 45.9124 70.6584 43.193 70.6408 42.9975C70.6231 42.802 70.3936 41.8245 68.1177 41.8067C65.8418 41.7889 63.8802 42.251 63.6506 42.8553C63.4211 43.4596 63.1739 44.8815 62.7149 46.2501C62.2558 47.6186 56.7312 59.9889 55.2851 63.2059C54.5435 64.8411 53.9079 66.1563 53.4489 67.045C53.3782 67.1872 53.3253 67.276 53.29 67.3471C53.3429 67.2583 53.3782 67.1694 53.3782 67.2049C52.9898 67.9692 52.7603 68.3958 52.7603 68.3958V68.4135C52.4601 68.9823 52.1246 69.4977 51.9657 69.4977C51.8598 69.4977 51.6303 68.0047 52.0187 65.9608C52.8485 61.6596 54.8084 54.9768 54.7907 54.7458C54.7731 54.6213 55.1615 53.4661 53.5018 52.844C51.8951 52.2575 51.3125 53.235 51.1712 53.235C51.03 53.235 50.924 53.5905 50.924 53.5905C50.924 53.5905 52.7073 46.0545 47.5005 46.0545C44.2517 46.0545 39.7317 49.6448 37.5106 52.8973C36.1157 53.6616 33.0965 55.3145 29.9184 57.0741C28.7001 57.7495 27.4465 58.4426 26.2635 59.1003C26.1753 59.0114 26.1046 58.9225 26.0163 58.8336C19.6972 52.0442 8.02992 47.2454 8.5243 38.1276C8.70086 34.804 9.84852 26.0772 30.9601 15.4842C48.2632 6.81079 62.0969 9.19243 64.4787 14.4889C67.904 22.0426 57.0825 36.1014 39.1138 38.1276C32.2649 38.8919 28.6648 36.2258 27.7643 35.2305C26.8285 34.1819 26.6873 34.1286 26.3342 34.3241C25.7515 34.644 26.1223 35.5682 26.3342 36.1192C26.8638 37.5233 29.0709 40.0116 32.8299 41.2557C36.1316 42.3399 44.1617 42.9442 53.8708 39.1585C64.7789 34.9284 73.2698 23.1446 70.7802 13.2803C68.2448 3.2561 51.7327 -0.0319839 36.1193 5.54888C26.8162 8.87251 16.7556 14.0979 9.51834 20.9051C0.921516 29.0098 -0.453907 36.0659 0.111094 39.0163C2.12214 49.4848 16.4555 56.3098 22.192 61.3575C21.9095 61.5174 21.6447 61.6596 21.3975 61.8018C18.5213 63.2415 7.59381 69.0001 4.85886 75.0786C1.76902 81.9747 5.37089 86.9157 7.73506 87.5911C15.1136 89.6528 22.6687 85.9381 26.7279 79.8419C30.7871 73.7456 30.2945 65.7831 28.4229 62.1573C28.4052 62.104 28.3699 62.0684 28.3523 62.0151C29.0938 61.5708 29.853 61.1264 30.6123 60.6821C32.076 59.8112 33.5061 59.0114 34.7597 58.3182C34.0535 60.2378 33.5414 62.5483 33.2766 65.8897C32.9588 69.7999 34.5655 74.8653 36.6489 76.8559C37.5671 77.7268 38.6776 77.7446 39.3662 77.7446C41.8028 77.7446 42.8975 75.7184 44.114 73.3012C45.6148 70.3508 46.939 66.9206 46.939 66.9206C46.939 66.9206 45.2793 76.1983 49.817 76.1983C51.4749 76.1983 53.1346 74.0477 53.8779 72.9458V72.9635C53.8779 72.9635 53.9132 72.8924 54.0015 72.7503C54.1781 72.4837 54.2663 72.3237 54.2663 72.3237V72.2704C54.9373 71.1151 56.4028 68.4669 58.608 64.0946C61.4683 58.4426 64.2033 51.3866 64.2033 51.3866C64.4676 52.9377 64.8333 54.4695 65.298 55.9721C65.7923 57.6606 66.8341 59.509 67.6639 61.3042C66.993 62.2284 66.5869 62.7616 66.5869 62.7616C66.5882 62.7752 66.5945 62.7879 66.6045 62.7971C66.0749 63.5081 65.4745 64.2723 64.8566 65.0188C62.5983 67.7204 59.9128 70.813 59.5597 71.7016C59.1359 72.7503 59.2419 73.5323 60.0541 74.1366C60.6544 74.5987 61.7138 74.6698 62.8243 74.5809C64.8548 74.4387 66.285 73.9411 66.9736 73.6212C68.243 73.1629 69.4428 72.5288 70.5384 71.7372C72.7454 70.102 74.0873 67.7559 73.9637 64.6633C73.893 62.9571 73.3457 61.2508 72.6748 59.6512C72.869 59.3669 73.0808 59.0647 73.2751 58.7626C76.7692 53.626 79.4706 47.9883 79.4706 47.9883C79.7349 49.5394 80.1006 51.0712 80.5653 52.5738C80.9891 54.0135 81.8172 55.5953 82.5764 57.1416C79.2941 59.8254 77.2636 62.9358 76.5574 64.9797C75.2508 68.7654 76.2749 70.4717 78.1994 70.8627C79.0646 71.0405 80.3005 70.6317 81.2186 70.2406C82.5822 69.7835 83.8678 69.1181 85.0306 68.2678C87.2376 66.6326 89.3723 64.3399 89.231 61.2295C89.1781 59.8254 88.7896 58.4213 88.2776 57.0705C91.0496 55.8975 94.6497 55.2576 99.2404 55.7908C109.071 56.9461 110.996 63.1313 110.625 65.7084C110.254 68.2856 108.189 69.7252 107.5 70.1518C106.811 70.5783 106.599 70.7383 106.652 71.0582C106.741 71.5203 107.059 71.5026 107.641 71.3959C108.453 71.2537 112.795 69.2987 112.989 64.5176C113.272 58.4746 107.5 51.8274 97.2752 51.8807L97.2805 51.8842ZM21.5034 77.6024C18.2564 81.1749 13.7011 82.5257 11.743 81.3882C9.64194 80.1582 10.4718 74.9008 14.478 71.0938C16.9145 68.7832 20.0556 66.6504 22.139 65.3352C22.6158 65.0508 23.3043 64.6242 24.1518 64.1088C24.2931 64.0199 24.3637 63.9844 24.3637 63.9844C24.5226 63.8778 24.6992 63.7889 24.8758 63.6822C26.3395 69.0854 24.9287 73.8487 21.5034 77.5989V77.6024ZM45.2263 61.3575C44.0963 64.1479 41.7145 71.2573 40.2667 70.884C39.0308 70.5641 38.2715 65.1432 40.0195 59.8112C40.9023 57.1274 42.7739 53.9282 43.8862 52.684C45.6678 50.6756 47.6276 50.0358 48.0867 50.8356C48.7046 51.8842 45.9326 59.6157 45.2263 61.3575ZM64.8248 70.7774C64.3481 71.0262 63.9067 71.1862 63.6948 71.0618C63.5359 70.9729 63.889 70.6352 63.889 70.6352C63.889 70.6352 66.3432 67.987 67.3143 66.7784C67.8793 66.0674 68.5326 65.2321 69.2371 64.3079C69.2371 64.3967 69.2547 64.4856 69.2547 64.5922C69.2318 67.7737 66.1967 69.9243 64.8195 70.7774H64.8248ZM79.935 67.3116C79.5819 67.0628 79.6348 66.2274 80.8178 63.6325C81.2769 62.6194 82.3345 60.9131 84.1725 59.278C84.3806 59.897 84.4937 60.5442 84.508 61.1975C84.4903 65.1965 81.6477 66.6895 79.9368 67.3116H79.935Z" fill="#333333"/>
</svg>
